<svg xmlns="http://www.w3.org/2000/svg" version="1.1" xmlns:xlink="http://www.w3.org/1999/xlink" xmlns:svgjs="http://svgjs.dev/svgjs" width="2000" height="2250" viewBox="0 0 2000 2250"><g transform="matrix(1,0,0,1,0.00044062500001018634,0)"><svg viewBox="0 0 320 360" data-background-color="#000000" preserveAspectRatio="xMidYMid meet" height="2250" width="2000" xmlns="http://www.w3.org/2000/svg" xmlns:xlink="http://www.w3.org/1999/xlink"><g id="tight-bounds" transform="matrix(1,0,0,1,-0.000023499999997511622,0)"><svg viewBox="0 0 320 360" height="360" width="320"><rect width="320.000094" height="360" fill="url(#4e7595c9-de61-4841-88fe-d1b7773a6890)" mask="url(#5e2aa245-7dc7-483f-9998-257a2cb92cdd)" data-fill-palette-color="tertiary"></rect><g><svg></svg></g><g><svg viewBox="0 0 320 360" height="360" width="320"><g><path transform="translate(-74.99272,-51.79039) scale(4.65793,4.65793)" d="M20.6 59.9l0.8 1-0.4-1.3c-0.1-0.6-0.8 0.1-0.4 0.3M21.5 59.3c0.3 0.5 0.6 1 0.6 1.5 0 0.7 0.6 1 1.1 1.2-0.7-0.8-1.1-3-1.7-2.7M59.9 16.9c1.7 0 3.3-0.2 5.1 0.2 4.4 1.1 8.1 3.3 10.6 6.4l7 11.2c0.3 2.8 0.9 5.9 0.8 9.3 0.7 0 0.6-1 1.4-1.2-0.8 2-1.2 4.5-1.4 7.4-0.5-1.6 0-4 0.1-5.3-0.7 1.1-1.1 0.3-1.1-0.2 0.1-0.8-0.3-0.7-0.6-1-1.1-1-1.8-2.1-2.6-3.8 0.5-1.3 0.6-3.2-1-4.2-0.5-0.3-1.1-0.8-1.4-1.6-0.4-1.1-1.1-2.4-0.9-4.1 0.1-0.5-1.5 1.1-2.4 0.4-3.9-2.7-7.8-5.8-12.5-8.4-2.5 0-4.3-0.9-5.2-2-0.8-1-0.2-2.3 1-2.4 0.7 0 1.5-0.2 2.1 0.2 0.1-0.4 0.5-0.9 1-0.9M50 14.6l0.2 0.1c1 0.2 1.5 1.6 2.6 1.1 0 0.7 0.1 1.4-0.1 1.9-0.3 0.8-1.2 0.8-1.9 0.8-6.7-0.4-10.6 2.4-14.7 4.8-1.1 0.7-2.3 1.2-3.2 2.1-4.3 4-9 7.7-10.1 15.1l-0.9 8.2c-0.1 0.9-1.1 1.8-0.9 2.9l0.7 4.9c-0.7-0.7-1.1 0.2-0.9 0.6 0.1 0.3 0.5 1.3 1.1 0.4 0.8 1.5 1.6 4.4 2.7 5.7 3.4 4 7.8 7.6 11.4 11.2 0.9-0.2 1.6-0.2 1.8-0.8 0.3 0.6-0.3 1.2-0.8 1.3 1.6 1 3.4 1.9 5.8 2.1 3.1 0.2 6 0.7 8.7 1.4 1.4-0.4 2.8-0.6 4.3-0.7 0.5 0 0.8-0.8 1.4-1l0.1-1c0.6 0.9 0.5-0.3 0.1-0.9 0.7 0.6 0.9 1.1 1.2 1.5 0-0.3 0.8-1.4 0.8-0.1l0.2-1.3c0.3-0.2 0.4 1.1 0.7 0.2 0.3-0.9 0.9-0.2 1.5-0.5-0.2 0.4-0.1 1.2 0.6 0.7l0.8-0.7c0.5 1.2 1.3 0.7 1.7 0.5 4.4-2.8 8.8-6.1 13-9.4l-0.1 1.3 0.5-1.6c0.5 0.5 0.9 0.1 1.1-0.2 0.6-1 1.4-2 2.7-2.9-1.6 4.3-3.5 7.7-5.9 10.5l-1 1.2c0 0.7-0.2 1.6-1 1.7-0.4 0.1-1.2-0.2-1.8 0.4-0.3 0.4 0.7 1.2-0.1 0.6-0.7-0.5-1.4 0-2.2 0.2-0.6 0.2 0.4 0.8 0.6 1.2 0.2 0.4 0.4 0.8 0.3 1.3l-1.1-1.2c-1.3 0.7-2.1 2-3.2 3-0.5 0.4-0.3 1.1-0.3 1.7-0.7 0-1.5-0.2-1.9 0.2-0.3 0.4-0.2 1-0.2 1.6-1-0.1-1.1-1.6-2-1.3-0.9 0.2-1.9 0.3-2.7 0.8 0.6 1.2-1 0.5-0.8 0.7-1.5-0.9-2.8-1.6-4.4-1-3.4-1.1-7.6-0.6-10.7-0.2 0-0.5 0.1-1-0.1-1.1-0.2 0.5-0.8 0.3-0.7 0.3-1.9-1.3-3.8-2.1-5.8-3.2-1.8 0.2-3.5-0.7-4-1.2-1.4-1.3-3-0.6-4.3-0.9-2.8-0.7-3.8-3.6-4.1-5.6-0.2-1-1-1.4-1.3-1.3-1.3-4.2-3.3-8-4.9-11.9-0.4-1-0.3-2-0.3-3.1 0.5 0.2 1 0.1 0.9-0.6-0.5-3.3-1.7-5.8-3-8.2 0.7-3.4 0.8-7.4 2.4-10.4 1.4-2.7 4-4.1 5.8-6.4 0.6-0.8 0.6-1.9 1.2-2.6 2-2 4-4.1 6.2-5.9 1-0.8 2.2 0 3.7-0.3 0.5-1.8 2.5-3.4 4.4-2.9 0.8 0.2 2.4-1.9 2.9-2.1 0.8-0.3 0.4 0.8 0.4 1.5 1.9-1.5 4.5-2.3 6.9-3.2" fill="url(#4e7595c9-de61-4841-88fe-d1b7773a6890)" fill-rule="nonzero" stroke="none" stroke-width="1" stroke-linecap="butt" stroke-linejoin="miter" stroke-miterlimit="10" stroke-dasharray="" stroke-dashoffset="0" font-family="none" font-weight="none" font-size="none" text-anchor="none" style="mix-blend-mode: normal" data-fill-palette-color="tertiary"></path></g><g transform="matrix(1,0,0,1,64,106.60826445024935)"><svg viewBox="0 0 192 146.7834710995013" height="146.7834710995013" width="192"><g><svg viewBox="0 0 192 146.7834710995013" height="146.7834710995013" width="192"><g transform="matrix(1,0,0,1,0,102.32847228686772)"><svg viewBox="0 0 192 44.454998812633576" height="44.454998812633576" width="192"><g id="textblocktransform"><svg viewBox="0 0 192 44.454998812633576" height="44.454998812633576" width="192" id="textblock"><g><svg viewBox="0 0 192 44.454998812633576" height="44.454998812633576" width="192"><g transform="matrix(1,0,0,1,0,0)"><svg width="192" viewBox="4 -41.2 210.53 48.75" height="44.454998812633576" data-palette-color="#2463eb"><path d="M23.8-10.25L23.8-5.9 4-15.3 4-18.2 23.8-27.6 23.8-23.25 9.7-16.75 23.8-10.25ZM44.2 0.5L44.2 0.5Q41 0.5 38.72-0.33 36.45-1.15 34.95-2.48 33.45-3.8 32.55-5.25 31.65-6.7 31.2-8.03 30.75-9.35 30.62-10.18 30.5-11 30.5-11L30.5-11 35.5-11Q35.5-11 35.65-10.3 35.8-9.6 36.27-8.55 36.75-7.5 37.7-6.43 38.65-5.35 40.25-4.65 41.85-3.95 44.3-3.95L44.3-3.95Q48-3.95 50.15-5.73 52.3-7.5 52.3-10.35L52.3-10.35Q52.3-12.8 50.67-14.15 49.05-15.5 46.05-16.25L46.05-16.25 41.15-17.45Q38.55-18.1 36.32-19.28 34.1-20.45 32.77-22.38 31.45-24.3 31.45-27.2L31.45-27.2Q31.45-30.45 33.05-32.75 34.65-35.05 37.4-36.27 40.15-37.5 43.65-37.5L43.65-37.5Q47.05-37.5 49.3-36.45 51.55-35.4 52.9-33.88 54.25-32.35 54.9-30.83 55.55-29.3 55.75-28.25 55.95-27.2 55.95-27.2L55.95-27.2 51.15-27.2Q51.15-27.2 50.95-28.1 50.75-29 50-30.18 49.25-31.35 47.7-32.25 46.15-33.15 43.5-33.15L43.5-33.15Q39.9-33.15 38.07-31.45 36.25-29.75 36.25-27.55L36.25-27.55Q36.25-25.55 37.7-24.33 39.15-23.1 41.7-22.45L41.7-22.45 47-21.15Q49.85-20.45 52.15-19.13 54.45-17.8 55.8-15.73 57.15-13.65 57.15-10.65L57.15-10.65Q57.15-7.65 55.67-5.1 54.2-2.55 51.32-1.03 48.45 0.5 44.2 0.5ZM75.59 0.5L75.59 0.5Q71.34 0.5 68.45-1.48 65.55-3.45 64.05-6.6 62.55-9.75 62.55-13.25L62.55-13.25Q62.55-16.8 64.05-19.93 65.55-23.05 68.45-25.03 71.34-27 75.59-27L75.59-27Q79.84-27 82.75-25.03 85.65-23.05 87.15-19.93 88.65-16.8 88.65-13.25L88.65-13.25Q88.65-9.75 87.15-6.6 85.65-3.45 82.75-1.48 79.84 0.5 75.59 0.5ZM75.59-3.65L75.59-3.65Q78.3-3.65 80.12-5.03 81.95-6.4 82.87-8.6 83.8-10.8 83.8-13.25L83.8-13.25Q83.8-15.75 82.87-17.93 81.95-20.1 80.12-21.48 78.3-22.85 75.59-22.85L75.59-22.85Q72.95-22.85 71.09-21.48 69.25-20.1 68.32-17.93 67.39-15.75 67.39-13.25L67.39-13.25Q67.39-10.8 68.32-8.6 69.25-6.4 71.09-5.03 72.95-3.65 75.59-3.65ZM99.89 0L95.14 0 95.14-26.5 99.89-26.5 99.89-23.2 100.09-23.2Q100.94-24.7 102.59-25.85 104.24-27 107.24-27L107.24-27Q108.09-27 108.79-26.93 109.49-26.85 109.49-26.85L109.49-26.85 109.49-22.3Q109.49-22.3 108.72-22.38 107.94-22.45 107.09-22.45L107.09-22.45Q103.64-22.45 101.77-20.48 99.89-18.5 99.89-14.05L99.89-14.05 99.89 0ZM118.84-31.55L118.84-31.55Q117.49-31.55 116.62-32.45 115.74-33.35 115.74-34.6L115.74-34.6Q115.74-35.9 116.62-36.8 117.49-37.7 118.84-37.7L118.84-37.7Q120.14-37.7 121.04-36.8 121.94-35.9 121.94-34.6L121.94-34.6Q121.94-33.35 121.04-32.45 120.14-31.55 118.84-31.55ZM121.24 0L116.49 0 116.49-26.5 121.24-26.5 121.24 0ZM133.69 0L128.94 0 128.94-26.5 133.69-26.5 133.69-22.65 133.99-22.65Q134.34-23.25 135.16-24.3 135.99-25.35 137.54-26.18 139.09-27 141.44-27L141.44-27Q144.34-27 146.39-25.68 148.44-24.35 149.51-22.1 150.59-19.85 150.59-17.05L150.59-17.05 150.59 0 145.84 0 145.84-16.75Q145.84-19.4 144.36-21.15 142.89-22.9 140.09-22.9L140.09-22.9Q137.84-22.9 136.44-21.78 135.04-20.65 134.36-18.82 133.69-17 133.69-14.95L133.69-14.95 133.69 0ZM172.13 7.55L167.58 7.55 184.93-41.2 189.48-41.2 172.13 7.55ZM214.53-15.3L194.73-5.9 194.73-10.25 208.83-16.75 194.73-23.25 194.73-27.6 214.53-18.2 214.53-15.3Z" opacity="1" transform="matrix(1,0,0,1,0,0)" fill="#2463eb" class="wordmark-text-0" data-fill-palette-color="primary" id="text-0"></path></svg></g></svg></g></svg></g></svg></g><g transform="matrix(1,0,0,1,43.10786736020235,0)"><svg viewBox="0 0 105.7842652795953 95.84142104013299" height="95.84142104013299" width="105.7842652795953"><g><svg xmlns="http://www.w3.org/2000/svg" xmlns:xlink="http://www.w3.org/1999/xlink" version="1.1" x="0" y="0" viewBox="0.0779999999999994 24.133 511.843000059714 463.7340000000001" enable-background="new 0 0 512 512" xml:space="preserve" height="95.84142104013299" width="105.7842652795953" class="icon-icon-0" data-fill-palette-color="accent" id="icon-0"></svg></g></svg></g><g></g></svg></g></svg></g></svg></g><defs></defs><mask id="bdc16a40-b9d9-4ce1-ad3c-3b0ebdd032e1"><g id="SvgjsG3608"><svg viewBox="0 0 320 360" height="360" width="320"><g><svg></svg></g><g><svg viewBox="0 0 320 360" height="360" width="320"><g><path transform="translate(-74.99272,-51.79039) scale(4.65793,4.65793)" d="M20.6 59.9l0.8 1-0.4-1.3c-0.1-0.6-0.8 0.1-0.4 0.3M21.5 59.3c0.3 0.5 0.6 1 0.6 1.5 0 0.7 0.6 1 1.1 1.2-0.7-0.8-1.1-3-1.7-2.7M59.9 16.9c1.7 0 3.3-0.2 5.1 0.2 4.4 1.1 8.1 3.3 10.6 6.4l7 11.2c0.3 2.8 0.9 5.9 0.8 9.3 0.7 0 0.6-1 1.4-1.2-0.8 2-1.2 4.5-1.4 7.4-0.5-1.6 0-4 0.1-5.3-0.7 1.1-1.1 0.3-1.1-0.2 0.1-0.8-0.3-0.7-0.6-1-1.1-1-1.8-2.1-2.6-3.8 0.5-1.3 0.6-3.2-1-4.2-0.5-0.3-1.1-0.8-1.4-1.6-0.4-1.1-1.1-2.4-0.9-4.1 0.1-0.5-1.5 1.1-2.4 0.4-3.9-2.7-7.8-5.8-12.5-8.4-2.5 0-4.3-0.9-5.2-2-0.8-1-0.2-2.3 1-2.4 0.7 0 1.5-0.2 2.1 0.2 0.1-0.4 0.5-0.9 1-0.9M50 14.6l0.2 0.1c1 0.2 1.5 1.6 2.6 1.1 0 0.7 0.1 1.4-0.1 1.9-0.3 0.8-1.2 0.8-1.9 0.8-6.7-0.4-10.6 2.4-14.7 4.8-1.1 0.7-2.3 1.2-3.2 2.1-4.3 4-9 7.7-10.1 15.1l-0.9 8.2c-0.1 0.9-1.1 1.8-0.9 2.9l0.7 4.9c-0.7-0.7-1.1 0.2-0.9 0.6 0.1 0.3 0.5 1.3 1.1 0.4 0.8 1.5 1.6 4.4 2.7 5.7 3.4 4 7.8 7.6 11.4 11.2 0.9-0.2 1.6-0.2 1.8-0.8 0.3 0.6-0.3 1.2-0.8 1.3 1.6 1 3.4 1.9 5.8 2.1 3.1 0.2 6 0.7 8.7 1.4 1.4-0.4 2.8-0.6 4.3-0.7 0.5 0 0.8-0.8 1.4-1l0.1-1c0.6 0.9 0.5-0.3 0.1-0.9 0.7 0.6 0.9 1.1 1.2 1.5 0-0.3 0.8-1.4 0.8-0.1l0.2-1.3c0.3-0.2 0.4 1.1 0.7 0.2 0.3-0.9 0.9-0.2 1.5-0.5-0.2 0.4-0.1 1.2 0.6 0.7l0.8-0.7c0.5 1.2 1.3 0.7 1.7 0.5 4.4-2.8 8.8-6.1 13-9.4l-0.1 1.3 0.5-1.6c0.5 0.5 0.9 0.1 1.1-0.2 0.6-1 1.4-2 2.7-2.9-1.6 4.3-3.5 7.7-5.9 10.5l-1 1.2c0 0.7-0.2 1.6-1 1.7-0.4 0.1-1.2-0.2-1.8 0.4-0.3 0.4 0.7 1.2-0.1 0.6-0.7-0.5-1.4 0-2.2 0.2-0.6 0.2 0.4 0.8 0.6 1.2 0.2 0.4 0.4 0.8 0.3 1.3l-1.1-1.2c-1.3 0.7-2.1 2-3.2 3-0.5 0.4-0.3 1.1-0.3 1.7-0.7 0-1.5-0.2-1.9 0.2-0.3 0.4-0.2 1-0.2 1.6-1-0.1-1.1-1.6-2-1.3-0.9 0.2-1.9 0.3-2.7 0.8 0.6 1.2-1 0.5-0.8 0.7-1.5-0.9-2.8-1.6-4.4-1-3.4-1.1-7.6-0.6-10.7-0.2 0-0.5 0.1-1-0.1-1.1-0.2 0.5-0.8 0.3-0.7 0.3-1.9-1.3-3.8-2.1-5.8-3.2-1.8 0.2-3.5-0.7-4-1.2-1.4-1.3-3-0.6-4.3-0.9-2.8-0.7-3.8-3.6-4.1-5.6-0.2-1-1-1.4-1.3-1.3-1.3-4.2-3.3-8-4.9-11.9-0.4-1-0.3-2-0.3-3.1 0.5 0.2 1 0.1 0.9-0.6-0.5-3.3-1.7-5.8-3-8.2 0.7-3.4 0.8-7.4 2.4-10.4 1.4-2.7 4-4.1 5.8-6.4 0.6-0.8 0.6-1.9 1.2-2.6 2-2 4-4.1 6.2-5.9 1-0.8 2.2 0 3.7-0.3 0.5-1.8 2.5-3.4 4.4-2.9 0.8 0.2 2.4-1.9 2.9-2.1 0.8-0.3 0.4 0.8 0.4 1.5 1.9-1.5 4.5-2.3 6.9-3.2" fill="black" fill-rule="nonzero" stroke="none" stroke-width="1" stroke-linecap="butt" stroke-linejoin="miter" stroke-miterlimit="10" stroke-dasharray="" stroke-dashoffset="0" font-family="none" font-weight="none" font-size="none" text-anchor="none" style="mix-blend-mode: normal"></path></g><g transform="matrix(1,0,0,1,64,106.60826445024935)"><svg viewBox="0 0 192 146.7834710995013" height="146.7834710995013" width="192"><g><svg viewBox="0 0 192 146.7834710995013" height="146.7834710995013" width="192"><g transform="matrix(1,0,0,1,0,102.32847228686772)"><svg viewBox="0 0 192 44.454998812633576" height="44.454998812633576" width="192"><g id="SvgjsG3607"><svg viewBox="0 0 192 44.454998812633576" height="44.454998812633576" width="192" id="SvgjsSvg3606"><g><svg viewBox="0 0 192 44.454998812633576" height="44.454998812633576" width="192"><g transform="matrix(1,0,0,1,0,0)"><svg width="192" viewBox="4 -41.2 210.53 48.75" height="44.454998812633576" data-palette-color="#2463eb"><path d="M23.8-10.25L23.8-5.9 4-15.3 4-18.2 23.8-27.6 23.8-23.25 9.7-16.75 23.8-10.25ZM44.2 0.5L44.2 0.5Q41 0.5 38.72-0.33 36.45-1.15 34.95-2.48 33.45-3.8 32.55-5.25 31.65-6.7 31.2-8.03 30.75-9.35 30.62-10.18 30.5-11 30.5-11L30.5-11 35.5-11Q35.5-11 35.65-10.3 35.8-9.6 36.27-8.55 36.75-7.5 37.7-6.43 38.65-5.35 40.25-4.65 41.85-3.95 44.3-3.95L44.3-3.95Q48-3.95 50.15-5.73 52.3-7.5 52.3-10.35L52.3-10.35Q52.3-12.8 50.67-14.15 49.05-15.5 46.05-16.25L46.05-16.25 41.15-17.45Q38.55-18.1 36.32-19.28 34.1-20.45 32.77-22.38 31.45-24.3 31.45-27.2L31.45-27.2Q31.45-30.45 33.05-32.75 34.65-35.05 37.4-36.27 40.15-37.5 43.65-37.5L43.65-37.5Q47.05-37.5 49.3-36.45 51.55-35.4 52.9-33.88 54.25-32.35 54.9-30.83 55.55-29.3 55.75-28.25 55.95-27.2 55.95-27.2L55.95-27.2 51.15-27.2Q51.15-27.2 50.95-28.1 50.75-29 50-30.18 49.25-31.35 47.7-32.25 46.15-33.15 43.5-33.15L43.5-33.15Q39.9-33.15 38.07-31.45 36.25-29.75 36.25-27.55L36.25-27.55Q36.25-25.55 37.7-24.33 39.15-23.1 41.7-22.45L41.7-22.45 47-21.15Q49.85-20.45 52.15-19.13 54.45-17.8 55.8-15.73 57.15-13.65 57.15-10.65L57.15-10.65Q57.15-7.65 55.67-5.1 54.2-2.55 51.32-1.03 48.45 0.5 44.2 0.5ZM75.59 0.5L75.59 0.5Q71.34 0.5 68.45-1.48 65.55-3.45 64.05-6.6 62.55-9.75 62.55-13.25L62.55-13.25Q62.55-16.8 64.05-19.93 65.55-23.05 68.45-25.03 71.34-27 75.59-27L75.59-27Q79.84-27 82.75-25.03 85.65-23.05 87.15-19.93 88.65-16.8 88.65-13.25L88.65-13.25Q88.65-9.75 87.15-6.6 85.65-3.45 82.75-1.48 79.84 0.5 75.59 0.5ZM75.59-3.65L75.59-3.65Q78.3-3.65 80.12-5.03 81.95-6.4 82.87-8.6 83.8-10.8 83.8-13.25L83.8-13.25Q83.8-15.75 82.87-17.93 81.95-20.1 80.12-21.48 78.3-22.85 75.59-22.85L75.59-22.85Q72.95-22.85 71.09-21.48 69.25-20.1 68.32-17.93 67.39-15.75 67.39-13.25L67.39-13.25Q67.39-10.8 68.32-8.6 69.25-6.4 71.09-5.03 72.95-3.65 75.59-3.65ZM99.89 0L95.14 0 95.14-26.5 99.89-26.5 99.89-23.2 100.09-23.2Q100.94-24.7 102.59-25.85 104.24-27 107.24-27L107.24-27Q108.09-27 108.79-26.93 109.49-26.85 109.49-26.85L109.49-26.85 109.49-22.3Q109.49-22.3 108.72-22.38 107.94-22.45 107.09-22.45L107.09-22.45Q103.64-22.45 101.77-20.48 99.89-18.5 99.89-14.05L99.89-14.05 99.89 0ZM118.84-31.55L118.84-31.55Q117.49-31.55 116.62-32.45 115.74-33.35 115.74-34.6L115.74-34.6Q115.74-35.9 116.62-36.8 117.49-37.7 118.84-37.7L118.84-37.7Q120.14-37.7 121.04-36.8 121.94-35.9 121.94-34.6L121.94-34.6Q121.94-33.35 121.04-32.45 120.14-31.55 118.84-31.55ZM121.24 0L116.49 0 116.49-26.5 121.24-26.5 121.24 0ZM133.69 0L128.94 0 128.94-26.5 133.69-26.5 133.69-22.65 133.99-22.65Q134.34-23.25 135.16-24.3 135.99-25.35 137.54-26.18 139.09-27 141.44-27L141.44-27Q144.34-27 146.39-25.68 148.44-24.35 149.51-22.1 150.59-19.85 150.59-17.05L150.59-17.05 150.59 0 145.84 0 145.84-16.75Q145.84-19.4 144.36-21.15 142.89-22.9 140.09-22.9L140.09-22.9Q137.84-22.9 136.44-21.78 135.04-20.65 134.36-18.82 133.69-17 133.69-14.95L133.69-14.95 133.69 0ZM172.13 7.55L167.58 7.55 184.93-41.2 189.48-41.2 172.13 7.55ZM214.53-15.3L194.73-5.9 194.73-10.25 208.83-16.75 194.73-23.25 194.73-27.6 214.53-18.2 214.53-15.3Z" opacity="1" transform="matrix(1,0,0,1,0,0)" fill="black" class="wordmark-text-0" id="SvgjsPath3605"></path></svg></g></svg></g></svg></g></svg></g><g transform="matrix(1,0,0,1,43.10786736020235,0)"><svg viewBox="0 0 105.7842652795953 95.84142104013299" height="95.84142104013299" width="105.7842652795953"><g><svg xmlns="http://www.w3.org/2000/svg" xmlns:xlink="http://www.w3.org/1999/xlink" version="1.1" x="0" y="0" viewBox="0.0779999999999994 24.133 511.843000059714 463.7340000000001" enable-background="new 0 0 512 512" xml:space="preserve" height="95.84142104013299" width="105.7842652795953" class="icon-icon-0" data-fill-palette-color="accent" id="SvgjsSvg3604"><g fill="white"><path d="M256 351.893c-8.817 0-15.995 7.17-15.995 15.995s7.178 15.995 15.995 15.995 15.995-7.17 15.995-15.995S264.817 351.893 256 351.893zM256 375.885c-4.405 0-7.998-3.592-7.998-7.997s3.592-7.997 7.998-7.997c4.412 0 7.998 3.592 7.998 7.997S260.412 375.885 256 375.885z" fill="white"></path><path d="M28.069 320.043h455.861c2.21 0 3.999-1.789 3.999-3.999V52.125c0-2.21-1.789-3.999-3.999-3.999H28.069c-2.21 0-3.999 1.788-3.999 3.999v263.919C24.07 318.254 25.859 320.043 28.069 320.043zM479.932 312.045H48.063V56.123h431.868V312.045zM40.065 56.123v19.994 23.993 23.993 23.993 23.993 23.993 23.993 23.993 23.993 23.993 19.993h-7.997v-15.994h3.999c2.21 0 3.999-1.789 3.999-3.999 0-2.211-1.788-3.999-3.999-3.999h-3.999v-15.995h3.999c2.21 0 3.999-1.788 3.999-3.999 0-2.21-1.788-3.999-3.999-3.999h-3.999v-15.995h3.999c2.21 0 3.999-1.788 3.999-3.999s-1.788-3.999-3.999-3.999h-3.999v-15.995h3.999c2.21 0 3.999-1.789 3.999-3.999 0-2.21-1.788-3.999-3.999-3.999h-3.999v-15.995h3.999c2.21 0 3.999-1.788 3.999-3.999s-1.788-3.999-3.999-3.999h-3.999v-15.995h3.999c2.21 0 3.999-1.789 3.999-3.999 0-2.21-1.788-3.999-3.999-3.999h-3.999v-15.995h3.999c2.21 0 3.999-1.788 3.999-3.999s-1.788-3.999-3.999-3.999h-3.999v-15.995h3.999c2.21 0 3.999-1.789 3.999-3.999 0-2.21-1.788-3.999-3.999-3.999h-3.999v-15.995h3.999c2.21 0 3.999-1.788 3.999-3.999s-1.788-3.999-3.999-3.999h-3.999V80.116h3.999c2.21 0 3.999-1.789 3.999-3.999 0-2.21-1.788-3.999-3.999-3.999h-3.999V56.123H40.065z" fill="white"></path><path d="M483.931 24.133H28.069c-15.433 0-27.991 12.559-27.991 27.992v319.778 0.125 15.87c0 15.698 12.301 27.991 27.991 27.991H199.08l-14.223 63.98h-8.833c-2.21 0-3.999 1.789-3.999 3.999s1.789 3.999 3.999 3.999h159.951c2.21 0 3.999-1.789 3.999-3.999s-1.789-3.999-3.999-3.999h-8.833l-14.223-63.98h171.011c15.698 0 27.991-12.293 27.991-27.991v-15.87V52.125C511.922 36.692 499.363 24.133 483.931 24.133zM483.931 392.021H28.069c-11.02 0-19.994-8.967-19.994-19.994v-0.125V343.91h495.849v28.117C503.924 383.055 494.958 392.021 483.931 392.021zM28.069 32.131h455.861c11.027 0 19.993 8.97 19.993 19.994v283.789H8.075V52.125C8.075 41.101 17.049 32.131 28.069 32.131zM318.949 479.869H193.058l14.214-63.98h97.455L318.949 479.869zM483.931 407.891H28.069c-9.81 0-17.76-6.732-19.596-15.924 5.054 4.967 11.965 8.052 19.596 8.052h455.861c7.63 0 14.542-3.085 19.595-8.052C501.698 401.158 493.748 407.891 483.931 407.891z" fill="white"></path><path d="M68.057 80.116h31.99c2.21 0 3.999-1.789 3.999-3.999 0-2.21-1.788-3.999-3.999-3.999h-31.99c-2.21 0-3.999 1.789-3.999 3.999C64.059 78.328 65.847 80.116 68.057 80.116z" fill="white"></path><path d="M132.038 104.108h111.966c2.21 0 3.999-1.788 3.999-3.999s-1.789-3.999-3.999-3.999H132.038c-2.211 0-3.999 1.788-3.999 3.999S129.827 104.108 132.038 104.108z" fill="white"></path><path d="M72.056 100.11c0 2.21 1.789 3.999 3.999 3.999h39.988c2.21 0 3.999-1.788 3.999-3.999s-1.788-3.999-3.999-3.999H76.055C73.845 96.111 72.056 97.899 72.056 100.11z" fill="white"></path><path d="M232.007 124.103c0 2.21 1.789 3.999 3.999 3.999h103.969c2.21 0 3.998-1.789 3.998-3.999 0-2.21-1.788-3.999-3.998-3.999H236.006C233.796 120.104 232.007 121.893 232.007 124.103z" fill="white"></path><path d="M355.97 128.102h31.99c2.21 0 3.999-1.789 3.999-3.999 0-2.21-1.789-3.999-3.999-3.999h-31.99c-2.211 0-3.999 1.789-3.999 3.999C351.971 126.313 353.759 128.102 355.97 128.102z" fill="white"></path><path d="M220.011 120.104H84.052c-2.21 0-3.999 1.789-3.999 3.999 0 2.21 1.788 3.999 3.999 3.999h135.958c2.21 0 3.999-1.789 3.999-3.999C224.01 121.893 222.221 120.104 220.011 120.104z" fill="white"></path><path d="M84.052 176.087h23.993c2.21 0 3.999-1.789 3.999-3.999 0-2.21-1.789-3.999-3.999-3.999H84.052c-2.21 0-3.999 1.789-3.999 3.999C80.054 174.298 81.842 176.087 84.052 176.087z" fill="white"></path><path d="M246.753 172.088c0-2.21-1.789-3.999-3.999-3.999H124.04c-2.21 0-3.999 1.789-3.999 3.999 0 2.21 1.789 3.999 3.999 3.999h118.714C244.964 176.087 246.753 174.298 246.753 172.088z" fill="white"></path><path d="M275.994 144.097H92.05c-2.21 0-3.999 1.788-3.999 3.999s1.789 3.999 3.999 3.999h183.944c2.21 0 3.998-1.788 3.998-3.999S278.204 144.097 275.994 144.097z" fill="white"></path><path d="M196.019 200.079h71.978c2.211 0 3.999-1.788 3.999-3.999s-1.788-3.999-3.999-3.999h-71.978c-2.211 0-3.999 1.788-3.999 3.999S193.808 200.079 196.019 200.079z" fill="white"></path><path d="M72.056 220.073c0 2.21 1.789 3.999 3.999 3.999h135.959c2.21 0 3.999-1.789 3.999-3.999 0-2.21-1.789-3.999-3.999-3.999H76.055C73.845 216.074 72.056 217.863 72.056 220.073z" fill="white"></path><path d="M140.035 264.06h-63.98c-2.21 0-3.999 1.789-3.999 3.999 0 2.211 1.789 3.999 3.999 3.999h63.98c2.21 0 3.999-1.788 3.999-3.999C144.034 265.849 142.246 264.06 140.035 264.06z" fill="white"></path><path d="M299.986 240.067H188.021c-2.21 0-3.999 1.788-3.999 3.999s1.789 3.999 3.999 3.999h111.966c2.211 0 3.999-1.788 3.999-3.999S302.197 240.067 299.986 240.067z" fill="white"></path><path d="M323.979 240.067h-7.998c-2.21 0-3.999 1.788-3.999 3.999s1.789 3.999 3.999 3.999h7.998c2.21 0 3.999-1.788 3.999-3.999S326.189 240.067 323.979 240.067z" fill="white"></path><path d="M172.025 240.067H84.052c-2.21 0-3.999 1.788-3.999 3.999s1.788 3.999 3.999 3.999h87.973c2.21 0 3.999-1.788 3.999-3.999S174.236 240.067 172.025 240.067z" fill="white"></path><path d="M100.047 288.053h-31.99c-2.21 0-3.999 1.788-3.999 3.999 0 2.21 1.788 3.999 3.999 3.999h31.99c2.21 0 3.999-1.789 3.999-3.999C104.046 289.841 102.258 288.053 100.047 288.053z" fill="white"></path><path d="M228.009 224.072h47.985c2.21 0 3.998-1.789 3.998-3.999 0-2.21-1.788-3.999-3.998-3.999h-47.985c-2.211 0-3.999 1.789-3.999 3.999C224.01 222.284 225.798 224.072 228.009 224.072z" fill="white"></path><path d="M339.975 192.082h-55.983c-2.21 0-3.999 1.788-3.999 3.999s1.789 3.999 3.999 3.999h55.983c2.21 0 3.998-1.788 3.998-3.999S342.185 192.082 339.975 192.082z" fill="white"></path><path d="M84.052 200.079h95.971c2.21 0 3.999-1.788 3.999-3.999s-1.789-3.999-3.999-3.999H84.052c-2.21 0-3.999 1.788-3.999 3.999S81.842 200.079 84.052 200.079z" fill="white"></path></g></svg></g></svg></g><g></g></svg></g></svg></g></svg></g><defs><mask></mask></defs></svg><rect width="320" height="360" fill="black" stroke="none" visibility="hidden"></rect></g></mask><linearGradient x1="0" x2="1" y1="0.578" y2="0.595" id="5209a148-f2df-4180-808d-4a684bf3e88a"><stop stop-color="#6ee2f5" offset="0"></stop><stop stop-color="#6454f0" offset="1"></stop></linearGradient><rect width="320.000047" height="360" fill="url(#5209a148-f2df-4180-808d-4a684bf3e88a)" mask="url(#bdc16a40-b9d9-4ce1-ad3c-3b0ebdd032e1)" data-fill-palette-color="accent"></rect><mask id="5e2aa245-7dc7-483f-9998-257a2cb92cdd"><g id="SvgjsG3618"><svg viewBox="0 0 320 360" height="360" width="320"><g><svg></svg></g><g><svg viewBox="0 0 320 360" height="360" width="320"><g><path transform="translate(-74.99272,-51.79039) scale(4.65793,4.65793)" d="M20.6 59.9l0.8 1-0.4-1.3c-0.1-0.6-0.8 0.1-0.4 0.3M21.5 59.3c0.3 0.5 0.6 1 0.6 1.5 0 0.7 0.6 1 1.1 1.2-0.7-0.8-1.1-3-1.7-2.7M59.9 16.9c1.7 0 3.3-0.2 5.1 0.2 4.4 1.1 8.1 3.3 10.6 6.4l7 11.2c0.3 2.8 0.9 5.9 0.8 9.3 0.7 0 0.6-1 1.4-1.2-0.8 2-1.2 4.5-1.4 7.4-0.5-1.6 0-4 0.1-5.3-0.7 1.1-1.1 0.3-1.1-0.2 0.1-0.8-0.3-0.7-0.6-1-1.1-1-1.8-2.1-2.6-3.8 0.5-1.3 0.6-3.2-1-4.2-0.5-0.3-1.1-0.8-1.4-1.6-0.4-1.1-1.1-2.4-0.9-4.1 0.1-0.5-1.5 1.1-2.4 0.4-3.9-2.7-7.8-5.8-12.5-8.4-2.5 0-4.3-0.9-5.2-2-0.8-1-0.2-2.3 1-2.4 0.7 0 1.5-0.2 2.1 0.2 0.1-0.4 0.5-0.9 1-0.9M50 14.6l0.2 0.1c1 0.2 1.5 1.6 2.6 1.1 0 0.7 0.1 1.4-0.1 1.9-0.3 0.8-1.2 0.8-1.9 0.8-6.7-0.4-10.6 2.4-14.7 4.8-1.1 0.7-2.3 1.2-3.2 2.1-4.3 4-9 7.7-10.1 15.1l-0.9 8.2c-0.1 0.9-1.1 1.8-0.9 2.9l0.7 4.9c-0.7-0.7-1.1 0.2-0.9 0.6 0.1 0.3 0.5 1.3 1.1 0.4 0.8 1.5 1.6 4.4 2.7 5.7 3.4 4 7.8 7.6 11.4 11.2 0.9-0.2 1.6-0.2 1.8-0.8 0.3 0.6-0.3 1.2-0.8 1.3 1.6 1 3.4 1.9 5.8 2.1 3.1 0.2 6 0.7 8.7 1.4 1.4-0.4 2.8-0.6 4.3-0.7 0.5 0 0.8-0.8 1.4-1l0.1-1c0.6 0.9 0.5-0.3 0.1-0.9 0.7 0.6 0.9 1.1 1.2 1.5 0-0.3 0.8-1.4 0.8-0.1l0.2-1.3c0.3-0.2 0.4 1.1 0.7 0.2 0.3-0.9 0.9-0.2 1.5-0.5-0.2 0.4-0.1 1.2 0.6 0.7l0.8-0.7c0.5 1.2 1.3 0.7 1.7 0.5 4.4-2.8 8.8-6.1 13-9.4l-0.1 1.3 0.5-1.6c0.5 0.5 0.9 0.1 1.1-0.2 0.6-1 1.4-2 2.7-2.9-1.6 4.3-3.5 7.7-5.9 10.5l-1 1.2c0 0.7-0.2 1.6-1 1.7-0.4 0.1-1.2-0.2-1.8 0.4-0.3 0.4 0.7 1.2-0.1 0.6-0.7-0.5-1.4 0-2.2 0.2-0.6 0.2 0.4 0.8 0.6 1.2 0.2 0.4 0.4 0.8 0.3 1.3l-1.1-1.2c-1.3 0.7-2.1 2-3.2 3-0.5 0.4-0.3 1.1-0.3 1.7-0.7 0-1.5-0.2-1.9 0.2-0.3 0.4-0.2 1-0.2 1.6-1-0.1-1.1-1.6-2-1.3-0.9 0.2-1.9 0.3-2.7 0.8 0.6 1.2-1 0.5-0.8 0.7-1.5-0.9-2.8-1.6-4.4-1-3.4-1.1-7.6-0.6-10.7-0.2 0-0.5 0.1-1-0.1-1.1-0.2 0.5-0.8 0.3-0.7 0.3-1.9-1.3-3.8-2.1-5.8-3.2-1.8 0.2-3.5-0.7-4-1.2-1.4-1.3-3-0.6-4.3-0.9-2.8-0.7-3.8-3.6-4.1-5.6-0.2-1-1-1.4-1.3-1.3-1.3-4.2-3.3-8-4.9-11.9-0.4-1-0.3-2-0.3-3.1 0.5 0.2 1 0.1 0.9-0.6-0.5-3.3-1.7-5.8-3-8.2 0.7-3.4 0.8-7.4 2.4-10.4 1.4-2.7 4-4.1 5.8-6.4 0.6-0.8 0.6-1.9 1.2-2.6 2-2 4-4.1 6.2-5.9 1-0.8 2.2 0 3.7-0.3 0.5-1.8 2.5-3.4 4.4-2.9 0.8 0.2 2.4-1.9 2.9-2.1 0.8-0.3 0.4 0.8 0.4 1.5 1.9-1.5 4.5-2.3 6.9-3.2" fill="white" fill-rule="nonzero" stroke="none" stroke-width="1" stroke-linecap="butt" stroke-linejoin="miter" stroke-miterlimit="10" stroke-dasharray="" stroke-dashoffset="0" font-family="none" font-weight="none" font-size="none" text-anchor="none" style="mix-blend-mode: normal"></path></g><g transform="matrix(1,0,0,1,64,106.60826445024935)"><svg viewBox="0 0 192 146.7834710995013" height="146.7834710995013" width="192"><g><svg viewBox="0 0 192 146.7834710995013" height="146.7834710995013" width="192"><g transform="matrix(1,0,0,1,0,102.32847228686772)"><svg viewBox="0 0 192 44.454998812633576" height="44.454998812633576" width="192"><g id="SvgjsG3617"><svg viewBox="0 0 192 44.454998812633576" height="44.454998812633576" width="192" id="SvgjsSvg3616"><g><svg viewBox="0 0 192 44.454998812633576" height="44.454998812633576" width="192"><g transform="matrix(1,0,0,1,0,0)"><svg width="192" viewBox="4 -41.2 210.53 48.75" height="44.454998812633576" data-palette-color="#2463eb"><path d="M23.8-10.25L23.8-5.9 4-15.3 4-18.2 23.8-27.6 23.8-23.25 9.7-16.75 23.8-10.25ZM44.2 0.5L44.2 0.5Q41 0.5 38.72-0.33 36.45-1.15 34.95-2.48 33.45-3.8 32.55-5.25 31.65-6.7 31.2-8.03 30.75-9.35 30.62-10.18 30.5-11 30.5-11L30.5-11 35.5-11Q35.5-11 35.65-10.3 35.8-9.6 36.27-8.55 36.75-7.5 37.7-6.43 38.65-5.35 40.25-4.65 41.85-3.95 44.3-3.95L44.3-3.95Q48-3.95 50.15-5.73 52.3-7.5 52.3-10.35L52.3-10.35Q52.3-12.8 50.67-14.15 49.05-15.5 46.05-16.25L46.05-16.25 41.15-17.45Q38.55-18.1 36.32-19.28 34.1-20.45 32.77-22.38 31.45-24.3 31.45-27.2L31.45-27.2Q31.45-30.45 33.05-32.75 34.65-35.05 37.4-36.27 40.15-37.5 43.65-37.5L43.65-37.5Q47.05-37.5 49.3-36.45 51.55-35.4 52.9-33.88 54.25-32.35 54.9-30.83 55.55-29.3 55.75-28.25 55.95-27.2 55.95-27.2L55.95-27.2 51.15-27.2Q51.15-27.2 50.95-28.1 50.75-29 50-30.18 49.25-31.35 47.7-32.25 46.15-33.15 43.5-33.15L43.5-33.15Q39.9-33.15 38.07-31.45 36.25-29.75 36.25-27.55L36.25-27.55Q36.25-25.55 37.7-24.33 39.15-23.1 41.7-22.45L41.7-22.45 47-21.15Q49.85-20.45 52.15-19.13 54.45-17.8 55.8-15.73 57.15-13.65 57.15-10.65L57.15-10.65Q57.15-7.65 55.67-5.1 54.2-2.55 51.32-1.03 48.45 0.5 44.2 0.5ZM75.59 0.5L75.59 0.5Q71.34 0.5 68.45-1.48 65.55-3.45 64.05-6.6 62.55-9.75 62.55-13.25L62.55-13.25Q62.55-16.8 64.05-19.93 65.55-23.05 68.45-25.03 71.34-27 75.59-27L75.59-27Q79.84-27 82.75-25.03 85.65-23.05 87.15-19.93 88.65-16.8 88.65-13.25L88.65-13.25Q88.65-9.75 87.15-6.6 85.65-3.45 82.75-1.48 79.84 0.5 75.59 0.5ZM75.59-3.65L75.59-3.65Q78.3-3.65 80.12-5.03 81.95-6.4 82.87-8.6 83.8-10.8 83.8-13.25L83.8-13.25Q83.8-15.75 82.87-17.93 81.95-20.1 80.12-21.48 78.3-22.85 75.59-22.85L75.59-22.85Q72.95-22.85 71.09-21.48 69.25-20.1 68.32-17.93 67.39-15.75 67.39-13.25L67.39-13.25Q67.39-10.8 68.32-8.6 69.25-6.4 71.09-5.03 72.95-3.65 75.59-3.65ZM99.89 0L95.14 0 95.14-26.5 99.89-26.5 99.89-23.2 100.09-23.2Q100.94-24.7 102.59-25.85 104.24-27 107.24-27L107.24-27Q108.09-27 108.79-26.93 109.49-26.85 109.49-26.85L109.49-26.85 109.49-22.3Q109.49-22.3 108.72-22.38 107.94-22.45 107.09-22.45L107.09-22.45Q103.64-22.45 101.77-20.48 99.89-18.5 99.89-14.05L99.89-14.05 99.89 0ZM118.84-31.55L118.84-31.55Q117.49-31.55 116.62-32.45 115.74-33.35 115.74-34.6L115.74-34.6Q115.74-35.9 116.62-36.8 117.49-37.7 118.84-37.7L118.84-37.7Q120.14-37.7 121.04-36.8 121.94-35.9 121.94-34.6L121.94-34.6Q121.94-33.35 121.04-32.45 120.14-31.55 118.84-31.55ZM121.24 0L116.49 0 116.49-26.5 121.24-26.5 121.24 0ZM133.69 0L128.94 0 128.94-26.5 133.69-26.5 133.69-22.65 133.99-22.65Q134.34-23.25 135.16-24.3 135.99-25.35 137.54-26.18 139.09-27 141.44-27L141.44-27Q144.34-27 146.39-25.68 148.44-24.35 149.51-22.1 150.59-19.85 150.59-17.05L150.59-17.05 150.59 0 145.84 0 145.84-16.75Q145.84-19.4 144.36-21.15 142.89-22.9 140.09-22.9L140.09-22.9Q137.84-22.9 136.44-21.78 135.04-20.65 134.36-18.82 133.69-17 133.69-14.95L133.69-14.95 133.69 0ZM172.13 7.55L167.58 7.55 184.93-41.2 189.48-41.2 172.13 7.55ZM214.53-15.3L194.73-5.9 194.73-10.25 208.83-16.75 194.73-23.25 194.73-27.6 214.53-18.2 214.53-15.3Z" opacity="1" transform="matrix(1,0,0,1,0,0)" fill="black" class="wordmark-text-0" id="SvgjsPath3615"></path></svg></g></svg></g></svg></g></svg></g><g transform="matrix(1,0,0,1,43.10786736020235,0)"><svg viewBox="0 0 105.7842652795953 95.84142104013299" height="95.84142104013299" width="105.7842652795953"><g><svg xmlns="http://www.w3.org/2000/svg" xmlns:xlink="http://www.w3.org/1999/xlink" version="1.1" x="0" y="0" viewBox="0.0779999999999994 24.133 511.843000059714 463.7340000000001" enable-background="new 0 0 512 512" xml:space="preserve" height="95.84142104013299" width="105.7842652795953" class="icon-icon-0" data-fill-palette-color="accent" id="SvgjsSvg3614"></svg></g></svg></g><g></g></svg></g></svg></g></svg></g><defs><mask></mask></defs><mask><g id="SvgjsG3613"><svg viewBox="0 0 320 360" height="360" width="320"><g><svg></svg></g><g><svg viewBox="0 0 320 360" height="360" width="320"><g><path transform="translate(-74.99272,-51.79039) scale(4.65793,4.65793)" d="M20.6 59.9l0.8 1-0.4-1.3c-0.1-0.6-0.8 0.1-0.4 0.3M21.5 59.3c0.3 0.5 0.6 1 0.6 1.5 0 0.7 0.6 1 1.1 1.2-0.7-0.8-1.1-3-1.7-2.7M59.9 16.9c1.7 0 3.3-0.2 5.1 0.2 4.4 1.1 8.1 3.3 10.6 6.4l7 11.2c0.3 2.8 0.9 5.9 0.8 9.3 0.7 0 0.6-1 1.4-1.2-0.8 2-1.2 4.5-1.4 7.4-0.5-1.6 0-4 0.1-5.3-0.7 1.1-1.1 0.3-1.1-0.2 0.1-0.8-0.3-0.7-0.6-1-1.1-1-1.8-2.1-2.6-3.8 0.5-1.3 0.6-3.2-1-4.2-0.5-0.3-1.1-0.8-1.4-1.6-0.4-1.1-1.1-2.4-0.9-4.1 0.1-0.5-1.5 1.1-2.4 0.4-3.9-2.7-7.8-5.8-12.5-8.4-2.5 0-4.3-0.9-5.2-2-0.8-1-0.2-2.3 1-2.4 0.7 0 1.5-0.2 2.1 0.2 0.1-0.4 0.5-0.9 1-0.9M50 14.6l0.2 0.1c1 0.2 1.5 1.6 2.6 1.1 0 0.7 0.1 1.4-0.1 1.9-0.3 0.8-1.2 0.8-1.9 0.8-6.7-0.4-10.6 2.4-14.7 4.8-1.1 0.7-2.3 1.2-3.2 2.1-4.3 4-9 7.7-10.1 15.1l-0.9 8.2c-0.1 0.9-1.1 1.8-0.9 2.9l0.7 4.9c-0.7-0.7-1.1 0.2-0.9 0.6 0.1 0.3 0.5 1.3 1.1 0.4 0.8 1.5 1.6 4.4 2.7 5.7 3.4 4 7.8 7.6 11.4 11.2 0.9-0.2 1.6-0.2 1.8-0.8 0.3 0.6-0.3 1.2-0.8 1.3 1.6 1 3.4 1.9 5.8 2.1 3.1 0.2 6 0.7 8.7 1.4 1.4-0.4 2.8-0.6 4.3-0.7 0.5 0 0.8-0.8 1.4-1l0.1-1c0.6 0.9 0.5-0.3 0.1-0.9 0.7 0.6 0.9 1.1 1.2 1.5 0-0.3 0.8-1.4 0.8-0.1l0.2-1.3c0.3-0.2 0.4 1.1 0.7 0.2 0.3-0.9 0.9-0.2 1.5-0.5-0.2 0.4-0.1 1.2 0.6 0.7l0.8-0.7c0.5 1.2 1.3 0.7 1.7 0.5 4.4-2.8 8.8-6.1 13-9.4l-0.1 1.3 0.5-1.6c0.5 0.5 0.9 0.1 1.1-0.2 0.6-1 1.4-2 2.7-2.9-1.6 4.3-3.5 7.7-5.9 10.5l-1 1.2c0 0.7-0.2 1.6-1 1.7-0.4 0.1-1.2-0.2-1.8 0.4-0.3 0.4 0.7 1.2-0.1 0.6-0.7-0.5-1.4 0-2.2 0.2-0.6 0.2 0.4 0.8 0.6 1.2 0.2 0.4 0.4 0.8 0.3 1.3l-1.1-1.2c-1.3 0.7-2.1 2-3.2 3-0.5 0.4-0.3 1.1-0.3 1.7-0.7 0-1.5-0.2-1.9 0.2-0.3 0.4-0.2 1-0.2 1.6-1-0.1-1.1-1.6-2-1.3-0.9 0.2-1.9 0.3-2.7 0.8 0.6 1.2-1 0.5-0.8 0.7-1.5-0.9-2.8-1.6-4.4-1-3.4-1.1-7.6-0.6-10.7-0.2 0-0.5 0.1-1-0.1-1.1-0.2 0.5-0.8 0.3-0.7 0.3-1.9-1.3-3.8-2.1-5.8-3.2-1.8 0.2-3.5-0.7-4-1.2-1.4-1.3-3-0.6-4.3-0.9-2.8-0.7-3.8-3.6-4.1-5.6-0.2-1-1-1.4-1.3-1.3-1.3-4.2-3.3-8-4.9-11.9-0.4-1-0.3-2-0.3-3.1 0.5 0.2 1 0.1 0.9-0.6-0.5-3.3-1.7-5.8-3-8.2 0.7-3.4 0.8-7.4 2.4-10.4 1.4-2.7 4-4.1 5.8-6.4 0.6-0.8 0.6-1.9 1.2-2.6 2-2 4-4.1 6.2-5.9 1-0.8 2.2 0 3.7-0.3 0.5-1.8 2.5-3.4 4.4-2.9 0.8 0.2 2.4-1.9 2.9-2.1 0.8-0.3 0.4 0.8 0.4 1.5 1.9-1.5 4.5-2.3 6.9-3.2" fill="black" fill-rule="nonzero" stroke="none" stroke-width="1" stroke-linecap="butt" stroke-linejoin="miter" stroke-miterlimit="10" stroke-dasharray="" stroke-dashoffset="0" font-family="none" font-weight="none" font-size="none" text-anchor="none" style="mix-blend-mode: normal"></path></g><g transform="matrix(1,0,0,1,64,106.60826445024935)"><svg viewBox="0 0 192 146.7834710995013" height="146.7834710995013" width="192"><g><svg viewBox="0 0 192 146.7834710995013" height="146.7834710995013" width="192"><g transform="matrix(1,0,0,1,0,102.32847228686772)"><svg viewBox="0 0 192 44.454998812633576" height="44.454998812633576" width="192"><g id="SvgjsG3612"><svg viewBox="0 0 192 44.454998812633576" height="44.454998812633576" width="192" id="SvgjsSvg3611"><g><svg viewBox="0 0 192 44.454998812633576" height="44.454998812633576" width="192"><g transform="matrix(1,0,0,1,0,0)"><svg width="192" viewBox="4 -41.2 210.53 48.75" height="44.454998812633576" data-palette-color="#2463eb"><path d="M23.8-10.25L23.8-5.9 4-15.3 4-18.2 23.8-27.6 23.8-23.25 9.7-16.75 23.8-10.25ZM44.2 0.5L44.2 0.5Q41 0.5 38.72-0.33 36.45-1.15 34.95-2.48 33.45-3.8 32.55-5.25 31.65-6.7 31.2-8.03 30.75-9.35 30.62-10.18 30.5-11 30.5-11L30.5-11 35.5-11Q35.5-11 35.65-10.3 35.8-9.6 36.27-8.55 36.75-7.5 37.7-6.43 38.65-5.35 40.25-4.65 41.85-3.95 44.3-3.95L44.3-3.95Q48-3.95 50.15-5.73 52.3-7.5 52.3-10.35L52.3-10.35Q52.3-12.8 50.67-14.15 49.05-15.5 46.05-16.25L46.05-16.25 41.15-17.45Q38.55-18.1 36.32-19.28 34.1-20.45 32.77-22.38 31.45-24.3 31.45-27.2L31.45-27.2Q31.45-30.45 33.05-32.75 34.65-35.05 37.4-36.27 40.15-37.5 43.65-37.5L43.65-37.5Q47.05-37.5 49.3-36.45 51.55-35.4 52.9-33.88 54.25-32.35 54.9-30.83 55.55-29.3 55.75-28.25 55.95-27.2 55.95-27.2L55.95-27.2 51.15-27.2Q51.15-27.2 50.95-28.1 50.75-29 50-30.18 49.25-31.35 47.7-32.25 46.15-33.15 43.5-33.15L43.5-33.15Q39.9-33.15 38.07-31.45 36.25-29.75 36.25-27.55L36.25-27.55Q36.25-25.55 37.7-24.33 39.15-23.1 41.7-22.45L41.7-22.45 47-21.15Q49.85-20.45 52.15-19.13 54.45-17.8 55.8-15.73 57.15-13.65 57.15-10.65L57.15-10.65Q57.15-7.65 55.67-5.1 54.2-2.55 51.32-1.03 48.45 0.5 44.2 0.5ZM75.59 0.5L75.59 0.5Q71.34 0.5 68.45-1.48 65.55-3.45 64.05-6.6 62.55-9.75 62.55-13.25L62.55-13.25Q62.55-16.8 64.05-19.93 65.55-23.05 68.45-25.03 71.34-27 75.59-27L75.59-27Q79.84-27 82.75-25.03 85.65-23.05 87.15-19.93 88.65-16.8 88.65-13.25L88.65-13.25Q88.65-9.75 87.15-6.6 85.65-3.45 82.75-1.48 79.84 0.5 75.59 0.5ZM75.59-3.65L75.59-3.65Q78.3-3.65 80.12-5.03 81.95-6.4 82.87-8.6 83.8-10.8 83.8-13.25L83.8-13.25Q83.8-15.75 82.87-17.93 81.95-20.1 80.12-21.48 78.3-22.85 75.59-22.85L75.59-22.85Q72.95-22.85 71.09-21.48 69.25-20.1 68.32-17.93 67.39-15.75 67.39-13.25L67.39-13.25Q67.39-10.8 68.32-8.6 69.25-6.4 71.09-5.03 72.95-3.65 75.59-3.65ZM99.89 0L95.14 0 95.14-26.5 99.89-26.5 99.89-23.2 100.09-23.2Q100.94-24.7 102.59-25.85 104.24-27 107.24-27L107.24-27Q108.09-27 108.79-26.93 109.49-26.85 109.49-26.85L109.49-26.85 109.49-22.3Q109.49-22.3 108.72-22.38 107.94-22.45 107.09-22.45L107.09-22.45Q103.64-22.45 101.77-20.48 99.89-18.5 99.89-14.05L99.89-14.05 99.89 0ZM118.84-31.55L118.84-31.55Q117.49-31.55 116.62-32.45 115.74-33.35 115.74-34.6L115.74-34.6Q115.74-35.9 116.62-36.8 117.49-37.7 118.84-37.7L118.84-37.7Q120.14-37.7 121.04-36.8 121.94-35.9 121.94-34.6L121.94-34.6Q121.94-33.35 121.04-32.45 120.14-31.55 118.84-31.55ZM121.24 0L116.49 0 116.49-26.5 121.24-26.5 121.24 0ZM133.69 0L128.94 0 128.94-26.5 133.69-26.5 133.69-22.65 133.99-22.65Q134.34-23.25 135.16-24.3 135.99-25.35 137.54-26.18 139.09-27 141.44-27L141.44-27Q144.34-27 146.39-25.68 148.44-24.35 149.51-22.1 150.59-19.85 150.59-17.05L150.59-17.05 150.59 0 145.84 0 145.84-16.75Q145.84-19.4 144.36-21.15 142.89-22.9 140.09-22.9L140.09-22.9Q137.84-22.9 136.44-21.78 135.04-20.65 134.36-18.82 133.69-17 133.69-14.95L133.69-14.95 133.69 0ZM172.13 7.55L167.58 7.55 184.93-41.2 189.48-41.2 172.13 7.55ZM214.53-15.3L194.73-5.9 194.73-10.25 208.83-16.75 194.73-23.25 194.73-27.6 214.53-18.2 214.53-15.3Z" opacity="1" transform="matrix(1,0,0,1,0,0)" fill="black" class="wordmark-text-0" id="SvgjsPath3610"></path></svg></g></svg></g></svg></g></svg></g><g transform="matrix(1,0,0,1,43.10786736020235,0)"><svg viewBox="0 0 105.7842652795953 95.84142104013299" height="95.84142104013299" width="105.7842652795953"><g><svg xmlns="http://www.w3.org/2000/svg" xmlns:xlink="http://www.w3.org/1999/xlink" version="1.1" x="0" y="0" viewBox="0.0779999999999994 24.133 511.843000059714 463.7340000000001" enable-background="new 0 0 512 512" xml:space="preserve" height="95.84142104013299" width="105.7842652795953" class="icon-icon-0" data-fill-palette-color="accent" id="SvgjsSvg3609"><g fill="black"><path d="M256 351.893c-8.817 0-15.995 7.17-15.995 15.995s7.178 15.995 15.995 15.995 15.995-7.17 15.995-15.995S264.817 351.893 256 351.893zM256 375.885c-4.405 0-7.998-3.592-7.998-7.997s3.592-7.997 7.998-7.997c4.412 0 7.998 3.592 7.998 7.997S260.412 375.885 256 375.885z" fill="black"></path><path d="M28.069 320.043h455.861c2.21 0 3.999-1.789 3.999-3.999V52.125c0-2.21-1.789-3.999-3.999-3.999H28.069c-2.21 0-3.999 1.788-3.999 3.999v263.919C24.07 318.254 25.859 320.043 28.069 320.043zM479.932 312.045H48.063V56.123h431.868V312.045zM40.065 56.123v19.994 23.993 23.993 23.993 23.993 23.993 23.993 23.993 23.993 23.993 19.993h-7.997v-15.994h3.999c2.21 0 3.999-1.789 3.999-3.999 0-2.211-1.788-3.999-3.999-3.999h-3.999v-15.995h3.999c2.21 0 3.999-1.788 3.999-3.999 0-2.21-1.788-3.999-3.999-3.999h-3.999v-15.995h3.999c2.21 0 3.999-1.788 3.999-3.999s-1.788-3.999-3.999-3.999h-3.999v-15.995h3.999c2.21 0 3.999-1.789 3.999-3.999 0-2.21-1.788-3.999-3.999-3.999h-3.999v-15.995h3.999c2.21 0 3.999-1.788 3.999-3.999s-1.788-3.999-3.999-3.999h-3.999v-15.995h3.999c2.21 0 3.999-1.789 3.999-3.999 0-2.21-1.788-3.999-3.999-3.999h-3.999v-15.995h3.999c2.21 0 3.999-1.788 3.999-3.999s-1.788-3.999-3.999-3.999h-3.999v-15.995h3.999c2.21 0 3.999-1.789 3.999-3.999 0-2.21-1.788-3.999-3.999-3.999h-3.999v-15.995h3.999c2.21 0 3.999-1.788 3.999-3.999s-1.788-3.999-3.999-3.999h-3.999V80.116h3.999c2.21 0 3.999-1.789 3.999-3.999 0-2.21-1.788-3.999-3.999-3.999h-3.999V56.123H40.065z" fill="black"></path><path d="M483.931 24.133H28.069c-15.433 0-27.991 12.559-27.991 27.992v319.778 0.125 15.87c0 15.698 12.301 27.991 27.991 27.991H199.08l-14.223 63.98h-8.833c-2.21 0-3.999 1.789-3.999 3.999s1.789 3.999 3.999 3.999h159.951c2.21 0 3.999-1.789 3.999-3.999s-1.789-3.999-3.999-3.999h-8.833l-14.223-63.98h171.011c15.698 0 27.991-12.293 27.991-27.991v-15.87V52.125C511.922 36.692 499.363 24.133 483.931 24.133zM483.931 392.021H28.069c-11.02 0-19.994-8.967-19.994-19.994v-0.125V343.91h495.849v28.117C503.924 383.055 494.958 392.021 483.931 392.021zM28.069 32.131h455.861c11.027 0 19.993 8.97 19.993 19.994v283.789H8.075V52.125C8.075 41.101 17.049 32.131 28.069 32.131zM318.949 479.869H193.058l14.214-63.98h97.455L318.949 479.869zM483.931 407.891H28.069c-9.81 0-17.76-6.732-19.596-15.924 5.054 4.967 11.965 8.052 19.596 8.052h455.861c7.63 0 14.542-3.085 19.595-8.052C501.698 401.158 493.748 407.891 483.931 407.891z" fill="black"></path><path d="M68.057 80.116h31.99c2.21 0 3.999-1.789 3.999-3.999 0-2.21-1.788-3.999-3.999-3.999h-31.99c-2.21 0-3.999 1.789-3.999 3.999C64.059 78.328 65.847 80.116 68.057 80.116z" fill="black"></path><path d="M132.038 104.108h111.966c2.21 0 3.999-1.788 3.999-3.999s-1.789-3.999-3.999-3.999H132.038c-2.211 0-3.999 1.788-3.999 3.999S129.827 104.108 132.038 104.108z" fill="black"></path><path d="M72.056 100.11c0 2.21 1.789 3.999 3.999 3.999h39.988c2.21 0 3.999-1.788 3.999-3.999s-1.788-3.999-3.999-3.999H76.055C73.845 96.111 72.056 97.899 72.056 100.11z" fill="black"></path><path d="M232.007 124.103c0 2.21 1.789 3.999 3.999 3.999h103.969c2.21 0 3.998-1.789 3.998-3.999 0-2.21-1.788-3.999-3.998-3.999H236.006C233.796 120.104 232.007 121.893 232.007 124.103z" fill="black"></path><path d="M355.97 128.102h31.99c2.21 0 3.999-1.789 3.999-3.999 0-2.21-1.789-3.999-3.999-3.999h-31.99c-2.211 0-3.999 1.789-3.999 3.999C351.971 126.313 353.759 128.102 355.97 128.102z" fill="black"></path><path d="M220.011 120.104H84.052c-2.21 0-3.999 1.789-3.999 3.999 0 2.21 1.788 3.999 3.999 3.999h135.958c2.21 0 3.999-1.789 3.999-3.999C224.01 121.893 222.221 120.104 220.011 120.104z" fill="black"></path><path d="M84.052 176.087h23.993c2.21 0 3.999-1.789 3.999-3.999 0-2.21-1.789-3.999-3.999-3.999H84.052c-2.21 0-3.999 1.789-3.999 3.999C80.054 174.298 81.842 176.087 84.052 176.087z" fill="black"></path><path d="M246.753 172.088c0-2.21-1.789-3.999-3.999-3.999H124.04c-2.21 0-3.999 1.789-3.999 3.999 0 2.21 1.789 3.999 3.999 3.999h118.714C244.964 176.087 246.753 174.298 246.753 172.088z" fill="black"></path><path d="M275.994 144.097H92.05c-2.21 0-3.999 1.788-3.999 3.999s1.789 3.999 3.999 3.999h183.944c2.21 0 3.998-1.788 3.998-3.999S278.204 144.097 275.994 144.097z" fill="black"></path><path d="M196.019 200.079h71.978c2.211 0 3.999-1.788 3.999-3.999s-1.788-3.999-3.999-3.999h-71.978c-2.211 0-3.999 1.788-3.999 3.999S193.808 200.079 196.019 200.079z" fill="black"></path><path d="M72.056 220.073c0 2.21 1.789 3.999 3.999 3.999h135.959c2.21 0 3.999-1.789 3.999-3.999 0-2.21-1.789-3.999-3.999-3.999H76.055C73.845 216.074 72.056 217.863 72.056 220.073z" fill="black"></path><path d="M140.035 264.06h-63.98c-2.21 0-3.999 1.789-3.999 3.999 0 2.211 1.789 3.999 3.999 3.999h63.98c2.21 0 3.999-1.788 3.999-3.999C144.034 265.849 142.246 264.06 140.035 264.06z" fill="black"></path><path d="M299.986 240.067H188.021c-2.21 0-3.999 1.788-3.999 3.999s1.789 3.999 3.999 3.999h111.966c2.211 0 3.999-1.788 3.999-3.999S302.197 240.067 299.986 240.067z" fill="black"></path><path d="M323.979 240.067h-7.998c-2.21 0-3.999 1.788-3.999 3.999s1.789 3.999 3.999 3.999h7.998c2.21 0 3.999-1.788 3.999-3.999S326.189 240.067 323.979 240.067z" fill="black"></path><path d="M172.025 240.067H84.052c-2.21 0-3.999 1.788-3.999 3.999s1.788 3.999 3.999 3.999h87.973c2.21 0 3.999-1.788 3.999-3.999S174.236 240.067 172.025 240.067z" fill="black"></path><path d="M100.047 288.053h-31.99c-2.21 0-3.999 1.788-3.999 3.999 0 2.21 1.788 3.999 3.999 3.999h31.99c2.21 0 3.999-1.789 3.999-3.999C104.046 289.841 102.258 288.053 100.047 288.053z" fill="black"></path><path d="M228.009 224.072h47.985c2.21 0 3.998-1.789 3.998-3.999 0-2.21-1.788-3.999-3.998-3.999h-47.985c-2.211 0-3.999 1.789-3.999 3.999C224.01 222.284 225.798 224.072 228.009 224.072z" fill="black"></path><path d="M339.975 192.082h-55.983c-2.21 0-3.999 1.788-3.999 3.999s1.789 3.999 3.999 3.999h55.983c2.21 0 3.998-1.788 3.998-3.999S342.185 192.082 339.975 192.082z" fill="black"></path><path d="M84.052 200.079h95.971c2.21 0 3.999-1.788 3.999-3.999s-1.789-3.999-3.999-3.999H84.052c-2.21 0-3.999 1.788-3.999 3.999S81.842 200.079 84.052 200.079z" fill="black"></path></g></svg></g></svg></g><g></g></svg></g></svg></g></svg></g><defs><mask></mask></defs></svg><rect width="320" height="360" fill="black" stroke="none" visibility="hidden"></rect></g></mask></svg><rect width="320" height="360" fill="black" stroke="none" visibility="hidden"></rect></g></mask><linearGradient x1="0" x2="1" y1="0.578" y2="0.595" id="4e7595c9-de61-4841-88fe-d1b7773a6890"><stop stop-color="#6ee2f5" offset="0"></stop><stop stop-color="#6454f0" offset="1"></stop></linearGradient></svg><rect width="320" height="360" fill="none" stroke="none" visibility="hidden"></rect></g></svg></g></svg>