<svg xmlns="http://www.w3.org/2000/svg" version="1.1" xmlns:xlink="http://www.w3.org/1999/xlink" xmlns:svgjs="http://svgjs.dev/svgjs" width="2000" height="616" viewBox="0 0 2000 616"><g transform="matrix(1,0,0,1,-1.2121212121212466,-1.0599259119724138)"><svg viewBox="0 0 396 122" data-background-color="#000000" preserveAspectRatio="xMidYMid meet" height="616" width="2000" xmlns="http://www.w3.org/2000/svg" xmlns:xlink="http://www.w3.org/1999/xlink"><g id="tight-bounds" transform="matrix(1,0,0,1,0.2400000000000091,0.2099203916568797)"><svg viewBox="0 0 395.52 121.58005542336146" height="121.58005542336146" width="395.52"><rect width="395.52" height="121.58015921668623" fill="url(#2b1a4aee-3849-4ad6-a927-a10196488f39)" mask="url(#84cac816-9c41-4c00-baac-4e689e4a7c15)" data-fill-palette-color="tertiary"></rect><g><svg viewBox="0 0 624.8348981399743 192.06983602929935" height="121.58005542336146" width="395.52"><g transform="matrix(1,0,0,1,229.3148981399743,56.5931046678091)"><svg viewBox="0 0 395.52 78.88362669368115" height="78.88362669368115" width="395.52"><g id="textblocktransform"><svg viewBox="0 0 395.52 78.88362669368115" height="78.88362669368115" width="395.52" id="textblock"><g><svg viewBox="0 0 395.52 78.88362669368115" height="78.88362669368115" width="395.52"><g transform="matrix(1,0,0,1,0,0)"><svg width="395.52" viewBox="0.37 -37.7 192.78 38.46" height="78.88362669368115" data-palette-color="#2463eb"><path d="M26.27-27.29L26.37-27.76Q26.66-29.05 26.26-30.05 25.85-31.05 24.98-31.75 24.1-32.45 22.85-32.8 21.61-33.15 20.21-33.15L20.21-33.15Q18.19-33.15 16.59-32.62 14.99-32.08 13.89-31.15 12.79-30.22 12.21-28.99 11.62-27.76 11.62-26.39L11.62-26.39Q11.62-25.17 12.08-24.41 12.55-23.66 13.26-23.17 13.96-22.68 14.83-22.39 15.7-22.09 16.5-21.8L16.5-21.8 21.07-20.14Q22.83-19.56 24.15-18.75 25.46-17.94 26.34-16.88 27.22-15.82 27.66-14.47 28.1-13.11 28.1-11.4L28.1-11.4Q28.1-8.69 27.05-6.45 26-4.2 24.11-2.6 22.22-1 19.56-0.12 16.89 0.76 13.67 0.76L13.67 0.76Q10.77 0.76 8.75 0.13 6.74-0.49 5.44-1.55 4.15-2.61 3.5-3.98 2.86-5.35 2.69-6.86L2.69-6.86 0.37-6.86 1.32-10.74 7.96-10.74 7.52-8.94Q7.18-6.3 9.06-5 10.94-3.71 14.5-3.71L14.5-3.71Q16.33-3.71 17.87-4.22 19.41-4.74 20.52-5.65 21.63-6.57 22.27-7.85 22.9-9.13 22.9-10.64L22.9-10.64Q22.9-11.82 22.49-12.67 22.07-13.53 21.35-14.15 20.63-14.77 19.67-15.22 18.7-15.67 17.6-16.04L17.6-16.04 13.35-17.41Q10.03-18.46 8.33-20.53 6.62-22.61 6.62-25.85L6.62-25.85Q6.62-28.34 7.57-30.48 8.52-32.62 10.34-34.19 12.16-35.77 14.76-36.66 17.36-37.55 20.65-37.55L20.65-37.55Q22.73-37.55 24.46-37.08 26.2-36.62 27.53-35.79 28.86-34.96 29.77-33.79 30.69-32.62 31.1-31.2L31.1-31.2 33.57-31.2 32.62-27.29 26.27-27.29ZM33.03-10.96L33.03-10.96Q33.03-13.06 33.55-14.99 34.08-16.92 35.04-18.6 36.01-20.29 37.36-21.66 38.72-23.02 40.35-24 41.99-24.98 43.86-25.51 45.73-26.05 47.73-26.05L47.73-26.05Q50.24-26.05 52.39-25.16 54.54-24.27 56.1-22.72 57.66-21.17 58.55-19.08 59.45-16.99 59.45-14.6L59.45-14.6Q59.45-12.48 58.91-10.52 58.37-8.57 57.41-6.88 56.44-5.2 55.1-3.81 53.76-2.42 52.11-1.44 50.46-0.46 48.58 0.07 46.7 0.61 44.68 0.61L44.68 0.61Q42.14 0.61 40.01-0.28 37.89-1.17 36.33-2.73 34.76-4.3 33.9-6.41 33.03-8.52 33.03-10.96ZM38.13-11.3L38.13-11.3Q38.13-9.59 38.63-8.19 39.13-6.79 40.04-5.8 40.94-4.81 42.21-4.26 43.48-3.71 44.99-3.71L44.99-3.71Q46.77-3.71 48.47-4.49 50.17-5.27 51.46-6.67 52.76-8.06 53.55-10.01 54.34-11.96 54.34-14.31L54.34-14.31Q54.34-16.02 53.82-17.38 53.29-18.75 52.37-19.73 51.44-20.7 50.18-21.23 48.92-21.75 47.43-21.75L47.43-21.75Q45.63-21.75 43.96-20.98 42.28-20.21 40.99-18.84 39.69-17.46 38.91-15.53 38.13-13.6 38.13-11.3ZM86.35-25.15L84.74-18.31 79.78-18.31 80.49-21.29Q78.12-21.29 76.46-20.08 74.8-18.87 73.73-16.89L73.73-16.89 70.8-4.2 75-4.2 74.04 0 64.89 0 69.77-21.09 64.94-21.09 65.94-25.29 75.48-25.29 74.68-21.83Q75.36-22.61 76.14-23.28 76.92-23.95 77.79-24.44 78.66-24.93 79.6-25.21 80.54-25.49 81.49-25.49L81.49-25.49Q82.37-25.49 83-25.46 83.64-25.44 84.36-25.38 85.08-25.32 86.35-25.15L86.35-25.15ZM90.93-21.09L91.94-25.29 101.38-25.29 96.5-4.2 100.55-4.2 99.6 0 90.59 0 95.48-21.09 90.93-21.09ZM96.6-34.2L96.6-34.2Q96.6-34.86 96.86-35.45 97.11-36.04 97.55-36.46 97.99-36.89 98.58-37.15 99.16-37.4 99.85-37.4L99.85-37.4Q100.51-37.4 101.09-37.15 101.68-36.89 102.1-36.46 102.53-36.04 102.79-35.45 103.04-34.86 103.04-34.2L103.04-34.2Q103.04-33.54 102.79-32.95 102.53-32.35 102.1-31.9 101.68-31.45 101.09-31.18 100.51-30.91 99.85-30.91L99.85-30.91Q99.16-30.91 98.58-31.18 97.99-31.45 97.55-31.9 97.11-32.35 96.86-32.95 96.6-33.54 96.6-34.2ZM108.34-21.09L109.34-25.29 118.89-25.29 118.28-22.71Q120.01-24.15 122.07-24.95 124.14-25.76 126.43-25.76L126.43-25.76Q128.38-25.76 129.96-25.17 131.53-24.58 132.53-23.39 133.53-22.19 133.85-20.41 134.17-18.63 133.63-16.26L133.63-16.26 130.85-4.2 134.44-4.2 133.49 0 124.94 0 128.58-15.65Q129.26-18.53 128.14-20 127.02-21.46 124.33-21.46L124.33-21.46Q122.43-21.46 120.72-20.64 119.01-19.82 117.47-18.36L117.47-18.36 113.25 0 108.29 0 113.17-21.09 108.34-21.09ZM178.99-10.35L183.68-7.86Q182.26-5.86 180.53-4.28 178.79-2.71 176.72-1.62 174.64-0.54 172.23 0.04 169.81 0.61 167.03 0.61L167.03 0.61Q163.68 0.61 160.84-0.65 157.99-1.9 155.92-4.13 153.84-6.35 152.66-9.39 151.47-12.43 151.47-15.99L151.47-15.99Q151.47-19.04 152.19-21.85 152.91-24.66 154.23-27.06 155.55-29.47 157.43-31.43 159.31-33.4 161.64-34.79 163.97-36.18 166.7-36.94 169.42-37.7 172.42-37.7L172.42-37.7Q176.57-37.7 179.81-36.02 183.04-34.35 185.12-31.4L185.12-31.4 188.93-31.4 187.92-27.2 181.19-27.2Q180.65-28.44 179.76-29.49 178.87-30.54 177.68-31.29 176.5-32.03 175.03-32.45 173.57-32.86 171.88-32.86L171.88-32.86Q168.66-32.86 165.93-31.56 163.19-30.25 161.19-28 159.19-25.76 158.07-22.77 156.94-19.78 156.94-16.41L156.94-16.41Q156.94-13.6 157.82-11.34 158.7-9.08 160.17-7.51 161.63-5.93 163.56-5.09 165.49-4.25 167.59-4.25L167.59-4.25Q171.27-4.25 174.07-5.77 176.86-7.3 178.99-10.35L178.99-10.35ZM186.7-2.91L186.7-2.91Q186.7-3.56 186.96-4.15 187.21-4.74 187.65-5.16 188.09-5.59 188.68-5.85 189.26-6.1 189.95-6.1L189.95-6.1Q190.61-6.1 191.19-5.85 191.78-5.59 192.21-5.16 192.63-4.74 192.89-4.15 193.15-3.56 193.15-2.91L193.15-2.91Q193.15-2.25 192.89-1.65 192.63-1.05 192.21-0.6 191.78-0.15 191.19 0.12 190.61 0.39 189.95 0.39L189.95 0.39Q189.26 0.39 188.68 0.12 188.09-0.15 187.65-0.6 187.21-1.05 186.96-1.65 186.7-2.25 186.7-2.91Z" opacity="1" transform="matrix(1,0,0,1,0,0)" fill="#2463eb" class="wordmark-text-0" data-fill-palette-color="primary" id="text-0"></path></svg></g></svg></g></svg></g></svg></g><g><svg viewBox="0 0 192.06983602929935 192.06983602929935" height="192.06983602929935" width="192.06983602929935"><g><svg></svg></g><g id="icon-0"><svg viewBox="0 0 192.06983602929935 192.06983602929935" height="192.06983602929935" width="192.06983602929935"><g><path d="M0 96.035c0-53.039 42.996-96.035 96.035-96.035 53.039 0 96.035 42.996 96.035 96.035 0 53.039-42.996 96.035-96.035 96.035-53.039 0-96.035-42.996-96.035-96.035zM96.035 184.956c49.11 0 88.921-39.811 88.921-88.921 0-49.11-39.811-88.921-88.921-88.921-49.11 0-88.921 39.811-88.921 88.921 0 49.11 39.811 88.921 88.921 88.921z" data-fill-palette-color="tertiary" fill="url(#2b1a4aee-3849-4ad6-a927-a10196488f39)" stroke="transparent"></path></g><g transform="matrix(1,0,0,1,40.45968771815713,56.215551977472025)"><svg viewBox="0 0 111.1504605929851 79.6387320743553" height="79.6387320743553" width="111.1504605929851"><g><svg xmlns="http://www.w3.org/2000/svg" xmlns:xlink="http://www.w3.org/1999/xlink" version="1.1" x="0" y="0" viewBox="1.5 15.2 97 69.5" enable-background="new 0 0 100 100" xml:space="preserve" height="79.6387320743553" width="111.1504605929851" class="icon-cg-0" data-fill-palette-color="accent" id="cg-0"></svg></g></svg></g></svg></g></svg></g></svg></g><defs></defs><mask id="315b441a-afd7-43ad-b2b0-0a9e7b62f36b"><g id="SvgjsG1019"><svg viewBox="0 0 395.52 121.58005542336146" height="121.58005542336146" width="395.52"><g><svg viewBox="0 0 624.8348981399743 192.06983602929935" height="121.58005542336146" width="395.52"><g transform="matrix(1,0,0,1,229.3148981399743,56.5931046678091)"><svg viewBox="0 0 395.52 78.88362669368115" height="78.88362669368115" width="395.52"><g id="SvgjsG1018"><svg viewBox="0 0 395.52 78.88362669368115" height="78.88362669368115" width="395.52" id="SvgjsSvg1017"><g><svg viewBox="0 0 395.52 78.88362669368115" height="78.88362669368115" width="395.52"><g transform="matrix(1,0,0,1,0,0)"><svg width="395.52" viewBox="0.37 -37.7 192.78 38.46" height="78.88362669368115" data-palette-color="#2463eb"><path d="M26.27-27.29L26.37-27.76Q26.66-29.05 26.26-30.05 25.85-31.05 24.98-31.75 24.1-32.45 22.85-32.8 21.61-33.15 20.21-33.15L20.21-33.15Q18.19-33.15 16.59-32.62 14.99-32.08 13.89-31.15 12.79-30.22 12.21-28.99 11.62-27.76 11.62-26.39L11.62-26.39Q11.62-25.17 12.08-24.41 12.55-23.66 13.26-23.17 13.96-22.68 14.83-22.39 15.7-22.09 16.5-21.8L16.5-21.8 21.07-20.14Q22.83-19.56 24.15-18.75 25.46-17.94 26.34-16.88 27.22-15.82 27.66-14.47 28.1-13.11 28.1-11.4L28.1-11.4Q28.1-8.69 27.05-6.45 26-4.2 24.11-2.6 22.22-1 19.56-0.12 16.89 0.76 13.67 0.76L13.67 0.76Q10.77 0.76 8.75 0.13 6.74-0.49 5.44-1.55 4.15-2.61 3.5-3.98 2.86-5.35 2.69-6.86L2.69-6.86 0.37-6.86 1.32-10.74 7.96-10.74 7.52-8.94Q7.18-6.3 9.06-5 10.94-3.71 14.5-3.71L14.5-3.71Q16.33-3.71 17.87-4.22 19.41-4.74 20.52-5.65 21.63-6.57 22.27-7.85 22.9-9.13 22.9-10.64L22.9-10.64Q22.9-11.82 22.49-12.67 22.07-13.53 21.35-14.15 20.63-14.77 19.67-15.22 18.7-15.67 17.6-16.04L17.6-16.04 13.35-17.41Q10.03-18.46 8.33-20.53 6.62-22.61 6.62-25.85L6.62-25.85Q6.62-28.34 7.57-30.48 8.52-32.62 10.34-34.19 12.16-35.77 14.76-36.66 17.36-37.55 20.65-37.55L20.65-37.55Q22.73-37.55 24.46-37.08 26.2-36.62 27.53-35.79 28.86-34.96 29.77-33.79 30.69-32.62 31.1-31.2L31.1-31.2 33.57-31.2 32.62-27.29 26.27-27.29ZM33.03-10.96L33.03-10.96Q33.03-13.06 33.55-14.99 34.08-16.92 35.04-18.6 36.01-20.29 37.36-21.66 38.72-23.02 40.35-24 41.99-24.98 43.86-25.51 45.73-26.05 47.73-26.05L47.73-26.05Q50.24-26.05 52.39-25.16 54.54-24.27 56.1-22.72 57.66-21.17 58.55-19.08 59.45-16.99 59.45-14.6L59.45-14.6Q59.45-12.48 58.91-10.52 58.37-8.57 57.41-6.88 56.44-5.2 55.1-3.81 53.76-2.42 52.11-1.44 50.46-0.46 48.58 0.07 46.7 0.61 44.68 0.61L44.68 0.61Q42.14 0.61 40.01-0.28 37.89-1.17 36.33-2.73 34.76-4.3 33.9-6.41 33.03-8.52 33.03-10.96ZM38.13-11.3L38.13-11.3Q38.13-9.59 38.63-8.19 39.13-6.79 40.04-5.8 40.94-4.81 42.21-4.26 43.48-3.71 44.99-3.71L44.99-3.71Q46.77-3.71 48.47-4.49 50.17-5.27 51.46-6.67 52.76-8.06 53.55-10.01 54.34-11.96 54.34-14.31L54.34-14.31Q54.34-16.02 53.82-17.38 53.29-18.75 52.37-19.73 51.44-20.7 50.18-21.23 48.92-21.75 47.43-21.75L47.43-21.75Q45.63-21.75 43.96-20.98 42.28-20.21 40.99-18.84 39.69-17.46 38.91-15.53 38.13-13.6 38.13-11.3ZM86.35-25.15L84.74-18.31 79.78-18.31 80.49-21.29Q78.12-21.29 76.46-20.08 74.8-18.87 73.73-16.89L73.73-16.89 70.8-4.2 75-4.2 74.04 0 64.89 0 69.77-21.09 64.94-21.09 65.94-25.29 75.48-25.29 74.68-21.83Q75.36-22.61 76.14-23.28 76.92-23.95 77.79-24.44 78.66-24.93 79.6-25.21 80.54-25.49 81.49-25.49L81.49-25.49Q82.37-25.49 83-25.46 83.64-25.44 84.36-25.38 85.08-25.32 86.35-25.15L86.35-25.15ZM90.93-21.09L91.94-25.29 101.38-25.29 96.5-4.2 100.55-4.2 99.6 0 90.59 0 95.48-21.09 90.93-21.09ZM96.6-34.2L96.6-34.2Q96.6-34.86 96.86-35.45 97.11-36.04 97.55-36.46 97.99-36.89 98.58-37.15 99.16-37.4 99.85-37.4L99.85-37.4Q100.51-37.4 101.09-37.15 101.68-36.89 102.1-36.46 102.53-36.04 102.79-35.45 103.04-34.86 103.04-34.2L103.04-34.2Q103.04-33.54 102.79-32.95 102.53-32.35 102.1-31.9 101.68-31.45 101.09-31.18 100.51-30.91 99.85-30.91L99.85-30.91Q99.16-30.91 98.58-31.18 97.99-31.45 97.55-31.9 97.11-32.35 96.86-32.95 96.6-33.54 96.6-34.2ZM108.34-21.09L109.34-25.29 118.89-25.29 118.28-22.71Q120.01-24.15 122.07-24.95 124.14-25.76 126.43-25.76L126.43-25.76Q128.38-25.76 129.96-25.17 131.53-24.58 132.53-23.39 133.53-22.19 133.85-20.41 134.17-18.63 133.63-16.26L133.63-16.26 130.85-4.2 134.44-4.2 133.49 0 124.94 0 128.58-15.65Q129.26-18.53 128.14-20 127.02-21.46 124.33-21.46L124.33-21.46Q122.43-21.46 120.72-20.64 119.01-19.82 117.47-18.36L117.47-18.36 113.25 0 108.29 0 113.17-21.09 108.34-21.09ZM178.99-10.35L183.68-7.86Q182.26-5.86 180.53-4.28 178.79-2.71 176.72-1.62 174.64-0.54 172.23 0.04 169.81 0.61 167.03 0.61L167.03 0.61Q163.68 0.61 160.84-0.65 157.99-1.9 155.92-4.13 153.84-6.35 152.66-9.39 151.47-12.43 151.47-15.99L151.47-15.99Q151.47-19.04 152.19-21.85 152.91-24.66 154.23-27.06 155.55-29.47 157.43-31.43 159.31-33.4 161.64-34.79 163.97-36.18 166.7-36.94 169.42-37.7 172.42-37.7L172.42-37.7Q176.57-37.7 179.81-36.02 183.04-34.35 185.12-31.4L185.12-31.4 188.93-31.4 187.92-27.2 181.19-27.2Q180.65-28.44 179.76-29.49 178.87-30.54 177.68-31.29 176.5-32.03 175.03-32.45 173.57-32.86 171.88-32.86L171.88-32.86Q168.66-32.86 165.93-31.56 163.19-30.25 161.19-28 159.19-25.76 158.07-22.77 156.94-19.78 156.94-16.41L156.94-16.41Q156.94-13.6 157.82-11.34 158.7-9.08 160.17-7.51 161.63-5.93 163.56-5.09 165.49-4.25 167.59-4.25L167.59-4.25Q171.27-4.25 174.07-5.77 176.86-7.3 178.99-10.35L178.99-10.35ZM186.7-2.91L186.7-2.91Q186.7-3.56 186.96-4.15 187.21-4.74 187.65-5.16 188.09-5.59 188.68-5.85 189.26-6.1 189.95-6.1L189.95-6.1Q190.61-6.1 191.19-5.85 191.78-5.59 192.21-5.16 192.63-4.74 192.89-4.15 193.15-3.56 193.15-2.91L193.15-2.91Q193.15-2.25 192.89-1.65 192.63-1.05 192.21-0.6 191.78-0.15 191.19 0.12 190.61 0.39 189.95 0.39L189.95 0.39Q189.26 0.39 188.68 0.12 188.09-0.15 187.65-0.6 187.21-1.05 186.96-1.65 186.7-2.25 186.7-2.91Z" opacity="1" transform="matrix(1,0,0,1,0,0)" fill="black" class="wordmark-text-0" id="SvgjsPath1016"></path></svg></g></svg></g></svg></g></svg></g><g><svg viewBox="0 0 192.06983602929935 192.06983602929935" height="192.06983602929935" width="192.06983602929935"><g><svg></svg></g><g id="SvgjsG1015"><svg viewBox="0 0 192.06983602929935 192.06983602929935" height="192.06983602929935" width="192.06983602929935"><g><path d="M0 96.035c0-53.039 42.996-96.035 96.035-96.035 53.039 0 96.035 42.996 96.035 96.035 0 53.039-42.996 96.035-96.035 96.035-53.039 0-96.035-42.996-96.035-96.035zM96.035 184.956c49.11 0 88.921-39.811 88.921-88.921 0-49.11-39.811-88.921-88.921-88.921-49.11 0-88.921 39.811-88.921 88.921 0 49.11 39.811 88.921 88.921 88.921z" fill="black" stroke="transparent"></path></g><g transform="matrix(1,0,0,1,40.45968771815713,56.215551977472025)"><svg viewBox="0 0 111.1504605929851 79.6387320743553" height="79.6387320743553" width="111.1504605929851"><g><svg xmlns="http://www.w3.org/2000/svg" xmlns:xlink="http://www.w3.org/1999/xlink" version="1.1" x="0" y="0" viewBox="1.5 15.2 97 69.5" enable-background="new 0 0 100 100" xml:space="preserve" height="79.6387320743553" width="111.1504605929851" class="icon-cg-0" data-fill-palette-color="accent" id="SvgjsSvg1014"><path d="M7.2 84.7h85.5c3.2 0 5.8-2.6 5.8-5.8v-2.5c0-0.5-0.2-1-0.5-1.4l-4.3-5.3c-0.7-0.9-1.1-1.9-1.1-3v-5-3.2-9.2l0 0V23.7c0-4.7-3.8-8.5-8.5-8.5H52.4 15.9c-4.7 0-8.5 3.8-8.5 8.5v34.8 1.9 6.2c0 1.1-0.4 2.2-1.1 3L2 75.1c-0.3 0.4-0.5 0.9-0.5 1.4V79C1.5 82.2 4.1 84.7 7.2 84.7zM59.2 76.4c0 1.6-1.3 2.9-2.9 2.9H43.8c-1.6 0-2.9-1.3-2.9-2.9v-0.6h18.4V76.4zM15.9 60.8v-2.2V23.7c0 0 0 0 0 0h40.3 27.9c0 0 0 0 0 0v34.9 2.2 0.6h0v0.4 5.5H15.9V60.8zM54.9 32.9l3.9 2.2-13.7 24-3.9-2.2L54.9 32.9zM38.5 38l-8 8 8 8-3.2 3.2-8-8L24.2 46l3.2-3.2 8-8L38.5 38zM72.6 42.8l3.2 3.2-3.2 3.2-8 8L61.5 54l8-8-8-8 3.2-3.2L72.6 42.8z" fill="white"></path></svg></g></svg></g></svg></g></svg></g></svg></g><defs><mask></mask></defs></svg><rect width="395.52" height="121.58005542336146" fill="black" stroke="none" visibility="hidden"></rect></g></mask><linearGradient x1="0" x2="1" y1="0.578" y2="0.595" id="86f4aa6b-465a-4ef1-bf21-f93901f986cb"><stop stop-color="#6ee2f5" offset="0"></stop><stop stop-color="#6454f0" offset="1"></stop></linearGradient><rect width="395.52" height="121.58015921668623" fill="url(#86f4aa6b-465a-4ef1-bf21-f93901f986cb)" mask="url(#315b441a-afd7-43ad-b2b0-0a9e7b62f36b)" data-fill-palette-color="accent"></rect><mask id="84cac816-9c41-4c00-baac-4e689e4a7c15"><g id="SvgjsG1031"><svg viewBox="0 0 395.52 121.58005542336146" height="121.58005542336146" width="395.52"><g><svg viewBox="0 0 624.8348981399743 192.06983602929935" height="121.58005542336146" width="395.52"><g transform="matrix(1,0,0,1,229.3148981399743,56.5931046678091)"><svg viewBox="0 0 395.52 78.88362669368115" height="78.88362669368115" width="395.52"><g id="SvgjsG1030"><svg viewBox="0 0 395.52 78.88362669368115" height="78.88362669368115" width="395.52" id="SvgjsSvg1029"><g><svg viewBox="0 0 395.52 78.88362669368115" height="78.88362669368115" width="395.52"><g transform="matrix(1,0,0,1,0,0)"><svg width="395.52" viewBox="0.37 -37.7 192.78 38.46" height="78.88362669368115" data-palette-color="#2463eb"><path d="M26.27-27.29L26.37-27.76Q26.66-29.05 26.26-30.05 25.85-31.05 24.98-31.75 24.1-32.45 22.85-32.8 21.61-33.15 20.21-33.15L20.21-33.15Q18.19-33.15 16.59-32.62 14.99-32.08 13.89-31.15 12.79-30.22 12.21-28.99 11.62-27.76 11.62-26.39L11.62-26.39Q11.62-25.17 12.08-24.41 12.55-23.66 13.26-23.17 13.96-22.68 14.83-22.39 15.7-22.09 16.5-21.8L16.5-21.8 21.07-20.14Q22.83-19.56 24.15-18.75 25.46-17.94 26.34-16.88 27.22-15.82 27.66-14.47 28.1-13.11 28.1-11.4L28.1-11.4Q28.1-8.69 27.05-6.45 26-4.2 24.11-2.6 22.22-1 19.56-0.12 16.89 0.76 13.67 0.76L13.67 0.76Q10.77 0.76 8.75 0.13 6.74-0.49 5.44-1.55 4.15-2.61 3.5-3.98 2.86-5.35 2.69-6.86L2.69-6.86 0.37-6.86 1.32-10.74 7.96-10.74 7.52-8.94Q7.18-6.3 9.06-5 10.94-3.71 14.5-3.71L14.5-3.71Q16.33-3.71 17.87-4.22 19.41-4.74 20.52-5.65 21.63-6.57 22.27-7.85 22.9-9.13 22.9-10.64L22.9-10.64Q22.9-11.82 22.49-12.67 22.07-13.53 21.35-14.15 20.63-14.77 19.67-15.22 18.7-15.67 17.6-16.04L17.6-16.04 13.35-17.41Q10.03-18.46 8.33-20.53 6.62-22.61 6.62-25.85L6.62-25.85Q6.62-28.34 7.57-30.48 8.52-32.62 10.34-34.19 12.16-35.77 14.76-36.66 17.36-37.55 20.65-37.55L20.65-37.55Q22.73-37.55 24.46-37.08 26.2-36.62 27.53-35.79 28.86-34.96 29.77-33.79 30.69-32.62 31.1-31.2L31.1-31.2 33.57-31.2 32.62-27.29 26.27-27.29ZM33.03-10.96L33.03-10.96Q33.03-13.06 33.55-14.99 34.08-16.92 35.04-18.6 36.01-20.29 37.36-21.66 38.72-23.02 40.35-24 41.99-24.98 43.86-25.51 45.73-26.05 47.73-26.05L47.73-26.05Q50.24-26.05 52.39-25.16 54.54-24.27 56.1-22.72 57.66-21.17 58.55-19.08 59.45-16.99 59.45-14.6L59.45-14.6Q59.45-12.48 58.91-10.52 58.37-8.57 57.41-6.88 56.44-5.2 55.1-3.81 53.76-2.42 52.11-1.44 50.46-0.46 48.58 0.07 46.7 0.61 44.68 0.61L44.68 0.61Q42.14 0.61 40.01-0.28 37.89-1.17 36.33-2.73 34.76-4.3 33.9-6.41 33.03-8.52 33.03-10.96ZM38.13-11.3L38.13-11.3Q38.13-9.59 38.63-8.19 39.13-6.79 40.04-5.8 40.94-4.81 42.21-4.26 43.48-3.71 44.99-3.71L44.99-3.71Q46.77-3.71 48.47-4.49 50.17-5.27 51.46-6.67 52.76-8.06 53.55-10.01 54.34-11.96 54.34-14.31L54.34-14.31Q54.34-16.02 53.82-17.38 53.29-18.75 52.37-19.73 51.44-20.7 50.18-21.23 48.92-21.75 47.43-21.75L47.43-21.75Q45.63-21.75 43.96-20.98 42.28-20.21 40.99-18.84 39.69-17.46 38.91-15.53 38.13-13.6 38.13-11.3ZM86.35-25.15L84.74-18.31 79.78-18.31 80.49-21.29Q78.12-21.29 76.46-20.08 74.8-18.87 73.73-16.89L73.73-16.89 70.8-4.2 75-4.2 74.04 0 64.89 0 69.77-21.09 64.94-21.09 65.94-25.29 75.48-25.29 74.68-21.83Q75.36-22.61 76.14-23.28 76.92-23.95 77.79-24.44 78.66-24.93 79.6-25.21 80.54-25.49 81.49-25.49L81.49-25.49Q82.37-25.49 83-25.46 83.64-25.44 84.36-25.38 85.08-25.32 86.35-25.15L86.35-25.15ZM90.93-21.09L91.94-25.29 101.38-25.29 96.5-4.2 100.55-4.2 99.6 0 90.59 0 95.48-21.09 90.93-21.09ZM96.6-34.2L96.6-34.2Q96.6-34.86 96.86-35.45 97.11-36.04 97.55-36.46 97.99-36.89 98.58-37.15 99.16-37.4 99.85-37.4L99.85-37.4Q100.51-37.4 101.09-37.15 101.68-36.89 102.1-36.46 102.53-36.04 102.79-35.45 103.04-34.86 103.04-34.2L103.04-34.2Q103.04-33.54 102.79-32.95 102.53-32.35 102.1-31.9 101.68-31.45 101.09-31.18 100.51-30.91 99.85-30.91L99.85-30.91Q99.16-30.91 98.58-31.18 97.99-31.45 97.55-31.9 97.11-32.35 96.86-32.95 96.6-33.54 96.6-34.2ZM108.34-21.09L109.34-25.29 118.89-25.29 118.28-22.71Q120.01-24.15 122.07-24.95 124.14-25.76 126.43-25.76L126.43-25.76Q128.38-25.76 129.96-25.17 131.53-24.58 132.53-23.39 133.53-22.19 133.85-20.41 134.17-18.63 133.63-16.26L133.63-16.26 130.85-4.2 134.44-4.2 133.49 0 124.94 0 128.58-15.65Q129.26-18.53 128.14-20 127.02-21.46 124.33-21.46L124.33-21.46Q122.43-21.46 120.72-20.64 119.01-19.82 117.47-18.36L117.47-18.36 113.25 0 108.29 0 113.17-21.09 108.34-21.09ZM178.99-10.35L183.68-7.86Q182.26-5.86 180.53-4.28 178.79-2.71 176.72-1.62 174.64-0.54 172.23 0.04 169.81 0.61 167.03 0.61L167.03 0.61Q163.68 0.61 160.84-0.65 157.99-1.9 155.92-4.13 153.84-6.35 152.66-9.39 151.47-12.43 151.47-15.99L151.47-15.99Q151.47-19.04 152.19-21.85 152.91-24.66 154.23-27.06 155.55-29.47 157.43-31.43 159.31-33.4 161.64-34.79 163.97-36.18 166.7-36.94 169.42-37.7 172.42-37.7L172.42-37.7Q176.57-37.7 179.81-36.02 183.04-34.35 185.12-31.4L185.12-31.4 188.93-31.4 187.92-27.2 181.19-27.2Q180.65-28.44 179.76-29.49 178.87-30.54 177.68-31.29 176.5-32.03 175.03-32.45 173.57-32.86 171.88-32.86L171.88-32.86Q168.66-32.86 165.93-31.56 163.19-30.25 161.19-28 159.19-25.76 158.07-22.77 156.94-19.78 156.94-16.41L156.94-16.41Q156.94-13.6 157.82-11.34 158.7-9.08 160.17-7.51 161.63-5.93 163.56-5.09 165.49-4.25 167.59-4.25L167.59-4.25Q171.27-4.25 174.07-5.77 176.86-7.3 178.99-10.35L178.99-10.35ZM186.7-2.91L186.7-2.91Q186.7-3.56 186.96-4.15 187.21-4.74 187.65-5.16 188.09-5.59 188.68-5.85 189.26-6.1 189.95-6.1L189.95-6.1Q190.61-6.1 191.19-5.85 191.78-5.59 192.21-5.16 192.63-4.74 192.89-4.15 193.15-3.56 193.15-2.91L193.15-2.91Q193.15-2.25 192.89-1.65 192.63-1.05 192.21-0.6 191.78-0.15 191.19 0.12 190.61 0.39 189.95 0.39L189.95 0.39Q189.26 0.39 188.68 0.12 188.09-0.15 187.65-0.6 187.21-1.05 186.96-1.65 186.7-2.25 186.7-2.91Z" opacity="1" transform="matrix(1,0,0,1,0,0)" fill="black" class="wordmark-text-0" id="SvgjsPath1028"></path></svg></g></svg></g></svg></g></svg></g><g><svg viewBox="0 0 192.06983602929935 192.06983602929935" height="192.06983602929935" width="192.06983602929935"><g><svg></svg></g><g id="SvgjsG1027"><svg viewBox="0 0 192.06983602929935 192.06983602929935" height="192.06983602929935" width="192.06983602929935"><g><path d="M0 96.035c0-53.039 42.996-96.035 96.035-96.035 53.039 0 96.035 42.996 96.035 96.035 0 53.039-42.996 96.035-96.035 96.035-53.039 0-96.035-42.996-96.035-96.035zM96.035 184.956c49.11 0 88.921-39.811 88.921-88.921 0-49.11-39.811-88.921-88.921-88.921-49.11 0-88.921 39.811-88.921 88.921 0 49.11 39.811 88.921 88.921 88.921z" fill="white" stroke="transparent"></path></g><g transform="matrix(1,0,0,1,40.45968771815713,56.215551977472025)"><svg viewBox="0 0 111.1504605929851 79.6387320743553" height="79.6387320743553" width="111.1504605929851"><g><svg xmlns="http://www.w3.org/2000/svg" xmlns:xlink="http://www.w3.org/1999/xlink" version="1.1" x="0" y="0" viewBox="1.5 15.2 97 69.5" enable-background="new 0 0 100 100" xml:space="preserve" height="79.6387320743553" width="111.1504605929851" class="icon-cg-0" data-fill-palette-color="accent" id="SvgjsSvg1026"></svg></g></svg></g></svg></g></svg></g></svg></g><defs><mask></mask></defs><mask><g id="SvgjsG1025"><svg viewBox="0 0 395.52 121.58005542336146" height="121.58005542336146" width="395.52"><g><svg viewBox="0 0 624.8348981399743 192.06983602929935" height="121.58005542336146" width="395.52"><g transform="matrix(1,0,0,1,229.3148981399743,56.5931046678091)"><svg viewBox="0 0 395.52 78.88362669368115" height="78.88362669368115" width="395.52"><g id="SvgjsG1024"><svg viewBox="0 0 395.52 78.88362669368115" height="78.88362669368115" width="395.52" id="SvgjsSvg1023"><g><svg viewBox="0 0 395.52 78.88362669368115" height="78.88362669368115" width="395.52"><g transform="matrix(1,0,0,1,0,0)"><svg width="395.52" viewBox="0.37 -37.7 192.78 38.46" height="78.88362669368115" data-palette-color="#2463eb"><path d="M26.27-27.29L26.37-27.76Q26.66-29.05 26.26-30.05 25.85-31.05 24.98-31.75 24.1-32.45 22.85-32.8 21.61-33.15 20.21-33.15L20.21-33.15Q18.19-33.15 16.59-32.62 14.99-32.08 13.89-31.15 12.79-30.22 12.21-28.99 11.62-27.76 11.62-26.39L11.62-26.39Q11.62-25.17 12.08-24.41 12.55-23.66 13.26-23.17 13.96-22.68 14.83-22.39 15.7-22.09 16.5-21.8L16.5-21.8 21.07-20.14Q22.83-19.56 24.15-18.75 25.46-17.94 26.34-16.88 27.22-15.82 27.66-14.47 28.1-13.11 28.1-11.4L28.1-11.4Q28.1-8.69 27.05-6.45 26-4.2 24.11-2.6 22.22-1 19.56-0.12 16.89 0.76 13.67 0.76L13.67 0.76Q10.77 0.76 8.75 0.13 6.74-0.49 5.44-1.55 4.15-2.61 3.5-3.98 2.86-5.35 2.69-6.86L2.69-6.86 0.37-6.86 1.32-10.74 7.96-10.74 7.52-8.94Q7.18-6.3 9.06-5 10.94-3.71 14.5-3.71L14.5-3.71Q16.33-3.71 17.87-4.22 19.41-4.74 20.52-5.65 21.63-6.57 22.27-7.85 22.9-9.13 22.9-10.64L22.9-10.64Q22.9-11.82 22.49-12.67 22.07-13.53 21.35-14.15 20.63-14.77 19.67-15.22 18.7-15.67 17.6-16.04L17.6-16.04 13.35-17.41Q10.03-18.46 8.33-20.53 6.62-22.61 6.62-25.85L6.62-25.85Q6.62-28.34 7.57-30.48 8.52-32.62 10.34-34.19 12.16-35.77 14.76-36.66 17.36-37.55 20.65-37.55L20.65-37.55Q22.73-37.55 24.46-37.08 26.2-36.62 27.53-35.79 28.86-34.96 29.77-33.79 30.69-32.62 31.1-31.2L31.1-31.2 33.57-31.2 32.62-27.29 26.27-27.29ZM33.03-10.96L33.03-10.96Q33.03-13.06 33.55-14.99 34.08-16.92 35.04-18.6 36.01-20.29 37.36-21.66 38.72-23.02 40.35-24 41.99-24.98 43.86-25.51 45.73-26.05 47.73-26.05L47.73-26.05Q50.24-26.05 52.39-25.16 54.54-24.27 56.1-22.72 57.66-21.17 58.55-19.08 59.45-16.99 59.45-14.6L59.45-14.6Q59.45-12.48 58.91-10.52 58.37-8.57 57.41-6.88 56.44-5.2 55.1-3.81 53.76-2.42 52.11-1.44 50.46-0.46 48.58 0.07 46.7 0.61 44.68 0.61L44.68 0.61Q42.14 0.61 40.01-0.28 37.89-1.17 36.33-2.73 34.76-4.3 33.9-6.41 33.03-8.52 33.03-10.96ZM38.13-11.3L38.13-11.3Q38.13-9.59 38.63-8.19 39.13-6.79 40.04-5.8 40.94-4.81 42.21-4.26 43.48-3.71 44.99-3.71L44.99-3.71Q46.77-3.71 48.47-4.49 50.17-5.27 51.46-6.67 52.76-8.06 53.55-10.01 54.34-11.96 54.34-14.31L54.34-14.31Q54.34-16.02 53.82-17.38 53.29-18.75 52.37-19.73 51.44-20.7 50.18-21.23 48.92-21.75 47.43-21.75L47.43-21.75Q45.63-21.75 43.96-20.98 42.28-20.21 40.99-18.84 39.69-17.46 38.91-15.53 38.13-13.6 38.13-11.3ZM86.35-25.15L84.74-18.31 79.78-18.31 80.49-21.29Q78.12-21.29 76.46-20.08 74.8-18.87 73.73-16.89L73.73-16.89 70.8-4.2 75-4.2 74.04 0 64.89 0 69.77-21.09 64.94-21.09 65.94-25.29 75.48-25.29 74.68-21.83Q75.36-22.61 76.14-23.28 76.92-23.95 77.79-24.44 78.66-24.93 79.6-25.21 80.54-25.49 81.49-25.49L81.49-25.49Q82.37-25.49 83-25.46 83.64-25.44 84.36-25.38 85.08-25.32 86.35-25.15L86.35-25.15ZM90.93-21.09L91.94-25.29 101.38-25.29 96.5-4.2 100.55-4.2 99.6 0 90.59 0 95.48-21.09 90.93-21.09ZM96.6-34.2L96.6-34.2Q96.6-34.86 96.86-35.45 97.11-36.04 97.55-36.46 97.99-36.89 98.58-37.15 99.16-37.4 99.85-37.4L99.85-37.4Q100.51-37.4 101.09-37.15 101.68-36.89 102.1-36.46 102.53-36.04 102.79-35.45 103.04-34.86 103.04-34.2L103.04-34.2Q103.04-33.54 102.79-32.95 102.53-32.35 102.1-31.9 101.68-31.45 101.09-31.18 100.51-30.91 99.85-30.91L99.85-30.91Q99.16-30.91 98.58-31.18 97.99-31.45 97.55-31.9 97.11-32.35 96.86-32.95 96.6-33.54 96.6-34.2ZM108.34-21.09L109.34-25.29 118.89-25.29 118.28-22.71Q120.01-24.15 122.07-24.95 124.14-25.76 126.43-25.76L126.43-25.76Q128.38-25.76 129.96-25.17 131.53-24.58 132.53-23.39 133.53-22.19 133.85-20.41 134.17-18.63 133.63-16.26L133.63-16.26 130.85-4.2 134.44-4.2 133.49 0 124.94 0 128.58-15.65Q129.26-18.53 128.14-20 127.02-21.46 124.33-21.46L124.33-21.46Q122.43-21.46 120.72-20.64 119.01-19.82 117.47-18.36L117.47-18.36 113.25 0 108.29 0 113.17-21.09 108.34-21.09ZM178.99-10.35L183.68-7.86Q182.26-5.86 180.53-4.28 178.79-2.71 176.72-1.62 174.64-0.54 172.23 0.04 169.81 0.61 167.03 0.61L167.03 0.61Q163.68 0.61 160.84-0.65 157.99-1.9 155.92-4.13 153.84-6.35 152.66-9.39 151.47-12.43 151.47-15.99L151.47-15.99Q151.47-19.04 152.19-21.85 152.91-24.66 154.23-27.06 155.55-29.47 157.43-31.43 159.31-33.4 161.64-34.79 163.97-36.18 166.7-36.94 169.42-37.7 172.42-37.7L172.42-37.7Q176.57-37.7 179.81-36.02 183.04-34.35 185.12-31.4L185.12-31.4 188.93-31.4 187.92-27.2 181.19-27.2Q180.65-28.44 179.76-29.49 178.87-30.54 177.68-31.29 176.5-32.03 175.03-32.45 173.57-32.86 171.88-32.86L171.88-32.86Q168.66-32.86 165.93-31.56 163.19-30.25 161.19-28 159.19-25.76 158.07-22.77 156.94-19.78 156.94-16.41L156.94-16.41Q156.94-13.6 157.82-11.34 158.7-9.08 160.17-7.51 161.63-5.93 163.56-5.09 165.49-4.25 167.59-4.25L167.59-4.25Q171.27-4.25 174.07-5.77 176.86-7.3 178.99-10.35L178.99-10.35ZM186.7-2.91L186.7-2.91Q186.7-3.56 186.96-4.15 187.21-4.74 187.65-5.16 188.09-5.59 188.68-5.85 189.26-6.1 189.95-6.1L189.95-6.1Q190.61-6.1 191.19-5.85 191.78-5.59 192.21-5.16 192.63-4.74 192.89-4.15 193.15-3.56 193.15-2.91L193.15-2.91Q193.15-2.25 192.89-1.65 192.63-1.05 192.21-0.6 191.78-0.15 191.19 0.12 190.61 0.39 189.95 0.39L189.95 0.39Q189.26 0.39 188.68 0.12 188.09-0.15 187.65-0.6 187.21-1.05 186.96-1.65 186.7-2.25 186.7-2.91Z" opacity="1" transform="matrix(1,0,0,1,0,0)" fill="black" class="wordmark-text-0" id="SvgjsPath1022"></path></svg></g></svg></g></svg></g></svg></g><g><svg viewBox="0 0 192.06983602929935 192.06983602929935" height="192.06983602929935" width="192.06983602929935"><g><svg></svg></g><g id="SvgjsG1021"><svg viewBox="0 0 192.06983602929935 192.06983602929935" height="192.06983602929935" width="192.06983602929935"><g><path d="M0 96.035c0-53.039 42.996-96.035 96.035-96.035 53.039 0 96.035 42.996 96.035 96.035 0 53.039-42.996 96.035-96.035 96.035-53.039 0-96.035-42.996-96.035-96.035zM96.035 184.956c49.11 0 88.921-39.811 88.921-88.921 0-49.11-39.811-88.921-88.921-88.921-49.11 0-88.921 39.811-88.921 88.921 0 49.11 39.811 88.921 88.921 88.921z" fill="black" stroke="transparent"></path></g><g transform="matrix(1,0,0,1,40.45968771815713,56.215551977472025)"><svg viewBox="0 0 111.1504605929851 79.6387320743553" height="79.6387320743553" width="111.1504605929851"><g><svg xmlns="http://www.w3.org/2000/svg" xmlns:xlink="http://www.w3.org/1999/xlink" version="1.1" x="0" y="0" viewBox="1.5 15.2 97 69.5" enable-background="new 0 0 100 100" xml:space="preserve" height="79.6387320743553" width="111.1504605929851" class="icon-cg-0" data-fill-palette-color="accent" id="SvgjsSvg1020"><path d="M7.2 84.7h85.5c3.2 0 5.8-2.6 5.8-5.8v-2.5c0-0.5-0.2-1-0.5-1.4l-4.3-5.3c-0.7-0.9-1.1-1.9-1.1-3v-5-3.2-9.2l0 0V23.7c0-4.7-3.8-8.5-8.5-8.5H52.4 15.9c-4.7 0-8.5 3.8-8.5 8.5v34.8 1.9 6.2c0 1.1-0.4 2.2-1.1 3L2 75.1c-0.3 0.4-0.5 0.9-0.5 1.4V79C1.5 82.2 4.1 84.7 7.2 84.7zM59.2 76.4c0 1.6-1.3 2.9-2.9 2.9H43.8c-1.6 0-2.9-1.3-2.9-2.9v-0.6h18.4V76.4zM15.9 60.8v-2.2V23.7c0 0 0 0 0 0h40.3 27.9c0 0 0 0 0 0v34.9 2.2 0.6h0v0.4 5.5H15.9V60.8zM54.9 32.9l3.9 2.2-13.7 24-3.9-2.2L54.9 32.9zM38.5 38l-8 8 8 8-3.2 3.2-8-8L24.2 46l3.2-3.2 8-8L38.5 38zM72.6 42.8l3.2 3.2-3.2 3.2-8 8L61.5 54l8-8-8-8 3.2-3.2L72.6 42.8z" fill="black"></path></svg></g></svg></g></svg></g></svg></g></svg></g><defs><mask></mask></defs></svg><rect width="395.52" height="121.58005542336146" fill="black" stroke="none" visibility="hidden"></rect></g></mask></svg><rect width="395.52" height="121.58005542336146" fill="black" stroke="none" visibility="hidden"></rect></g></mask><linearGradient x1="0" x2="1" y1="0.578" y2="0.595" id="2b1a4aee-3849-4ad6-a927-a10196488f39"><stop stop-color="#6ee2f5" offset="0"></stop><stop stop-color="#6454f0" offset="1"></stop></linearGradient></svg><rect width="395.52" height="121.58005542336146" fill="none" stroke="none" visibility="hidden"></rect></g></svg></g></svg>